<?xml version="1.0" standalone="no"?>
<!DOCTYPE svg PUBLIC "-//W3C//DTD SVG 20010904//EN"
 "http://www.w3.org/TR/2001/REC-SVG-20010904/DTD/svg10.dtd">
<svg version="1.0" xmlns="http://www.w3.org/2000/svg"
 width="800.000000pt" height="800.000000pt" viewBox="0 0 800.000000 800.000000"
 preserveAspectRatio="xMidYMid meet">

<g transform="translate(0.000000,800.000000) scale(0.100000,-0.100000)"
fill="#000000" stroke="none">
<path d="M2015 7042 c-64 -34 -136 -84 -200 -137 -27 -23 -85 -65 -127 -93
-86 -58 -93 -67 -109 -144 -6 -29 -20 -82 -30 -118 -21 -68 -66 -281 -93 -435
-36 -213 -47 -267 -81 -394 -19 -74 -40 -138 -47 -143 -7 -4 -23 -8 -36 -8
-12 0 -48 -13 -80 -29 -32 -16 -76 -34 -99 -40 l-42 -11 4 -48 c2 -26 8 -67
13 -92 39 -182 44 -218 38 -285 -4 -38 -9 -104 -13 -145 -3 -41 -10 -78 -16
-81 -10 -7 -32 -84 -87 -304 -31 -123 -38 -218 -25 -326 5 -44 1 -68 -19 -128
-33 -95 -33 -123 4 -217 20 -54 31 -102 35 -163 9 -133 25 -290 37 -356 5 -33
11 -121 12 -195 2 -128 4 -139 35 -210 17 -41 39 -82 47 -91 8 -9 30 -48 48
-85 18 -38 47 -84 64 -102 l32 -34 102 7 c72 4 138 2 218 -9 63 -9 152 -16
198 -16 l82 0 1 138 c0 75 2 166 4 202 4 80 13 668 20 1330 3 272 7 585 10
695 3 158 1 203 -9 215 -15 16 -36 83 -36 112 0 9 11 30 25 46 21 25 25 40 25
88 0 57 -2 60 -41 88 -38 27 -41 31 -36 70 2 22 11 64 20 91 10 31 11 44 4 35
-14 -17 -67 -26 -67 -12 0 5 -14 12 -31 16 -17 3 -28 10 -25 14 3 5 -1 20 -9
35 -10 19 -10 26 -2 24 7 -1 11 8 10 21 -2 14 1 21 7 17 6 -4 19 4 30 17 23
27 27 60 6 52 -9 -3 -17 3 -21 16 -5 16 -13 20 -27 17 -15 -4 -19 -1 -17 16 2
12 -1 32 -5 45 -5 15 -2 36 9 59 16 34 17 37 1 49 -11 8 -13 14 -7 19 6 3 11
16 11 29 0 12 3 26 7 30 12 12 11 76 -1 76 -6 0 -2 7 8 15 11 9 21 30 23 52 2
21 11 62 20 90 14 48 19 53 51 59 29 6 39 3 54 -16 23 -29 28 -91 7 -98 -11
-4 -12 -32 -1 -32 4 0 17 -15 27 -32 18 -30 20 -51 19 -228 -2 -288 15 -180
31 196 5 132 10 148 39 139 57 -17 157 -17 202 0 59 22 49 32 -12 11 -59 -20
-83 -20 -133 0 -65 26 -121 134 -121 235 0 45 6 65 31 105 72 111 120 181 156
223 l37 43 -27 24 c-36 31 -69 30 -132 -4z m-167 -528 c1 -14 -2 -23 -7 -19
-5 3 -11 -1 -14 -7 -2 -7 -7 -10 -11 -7 -6 6 15 59 24 59 3 0 7 -11 8 -26z
m-213 -1072 c-6 -15 -8 -15 -15 3 -4 12 -3 23 4 27 14 9 20 -7 11 -30z m-118
22 c-3 -3 -12 -4 -19 -1 -8 3 -5 6 6 6 11 1 17 -2 13 -5z m-427 -1131 c0 -16
-5 -35 -10 -43 -15 -25 -33 3 -25 39 8 39 35 42 35 4z"/>
<path d="M4437 6873 c-11 -10 -8 -35 3 -28 6 3 10 -1 10 -9 0 -10 -6 -13 -15
-10 -8 4 -15 12 -15 19 0 21 -17 27 -24 9 -3 -8 -2 -12 4 -9 6 3 10 -1 10 -9
0 -10 -6 -13 -15 -10 -8 4 -15 2 -15 -4 0 -17 -51 -21 -57 -4 -5 12 -8 11 -14
-6 -7 -17 -14 -20 -49 -16 -25 3 -40 1 -36 -4 3 -6 -1 -12 -9 -16 -8 -3 -15 0
-15 7 0 7 -7 4 -15 -7 -7 -10 -19 -15 -25 -11 -6 4 -9 1 -8 -7 2 -7 -3 -12 -9
-10 -7 1 -13 -2 -13 -8 0 -6 -7 -10 -15 -10 -8 0 -15 -4 -15 -10 0 -5 -6 -10
-14 -10 -8 0 -27 -15 -42 -33 -16 -19 -49 -57 -74 -86 -25 -29 -46 -56 -48
-62 -2 -5 -10 -9 -18 -9 -8 0 -14 -9 -14 -20 0 -11 -5 -19 -11 -18 -20 5 -81
-126 -94 -202 -3 -19 -8 -90 -11 -158 -4 -96 -1 -136 11 -179 9 -31 14 -66 11
-79 -3 -12 -2 -33 3 -46 6 -13 10 -16 10 -8 1 8 13 45 28 82 25 65 28 69 64
74 26 4 40 13 48 30 17 37 87 82 149 94 31 7 67 14 80 17 12 3 22 1 22 -5 0
-5 -21 -13 -47 -17 -80 -11 -121 -27 -162 -62 -48 -41 -57 -74 -41 -160 13
-69 41 -112 95 -144 16 -11 23 -19 15 -19 -8 0 -34 17 -58 38 -44 38 -72 102
-72 164 0 23 -4 28 -24 28 -19 0 -28 -11 -49 -57 -31 -72 -41 -101 -43 -133
-1 -14 -2 -27 -3 -30 -1 -4 -16 -4 -35 -2 -22 3 -35 -1 -39 -10 -9 -24 12
-187 28 -218 8 -16 20 -52 26 -80 6 -27 14 -50 18 -50 18 0 29 -51 24 -114 -3
-44 -1 -72 7 -81 7 -8 9 -15 6 -15 -4 0 2 -13 14 -30 12 -16 18 -34 15 -40 -3
-5 -1 -10 5 -10 7 0 8 -6 0 -19 -14 -28 -12 -61 4 -61 11 0 14 -20 15 -90 l1
-90 -41 -37 c-23 -21 -50 -41 -59 -45 -10 -4 -77 -11 -149 -17 -91 -7 -155
-18 -207 -36 -41 -14 -88 -25 -104 -25 -31 0 -80 -18 -80 -30 0 -12 -117 -23
-260 -25 -131 -2 -280 -26 -280 -45 0 -4 -24 -13 -52 -18 -85 -16 -163 -41
-166 -52 -2 -5 -17 -10 -33 -10 -43 0 -92 -23 -118 -56 l-23 -29 6 -480 c11
-822 18 -1165 27 -1170 4 -3 23 8 41 24 l34 29 2 -56 c2 -38 12 -78 32 -121
27 -58 30 -72 30 -171 0 -98 2 -110 25 -145 27 -39 55 -130 55 -176 0 -15 3
-35 6 -43 6 -15 8 -15 18 -1 8 12 12 -8 14 -86 2 -55 -1 -106 -5 -112 -5 -7
-9 -172 -8 -368 0 -274 3 -359 13 -371 8 -10 15 -60 18 -129 6 -100 3 -129
-21 -239 -43 -196 -47 -230 -40 -310 4 -48 0 -115 -9 -180 -8 -58 -18 -130
-21 -160 -3 -30 -8 -67 -11 -83 l-6 -27 2182 0 c1979 0 2181 2 2176 16 -3 9
-6 19 -6 22 0 4 -5 0 -10 -8 -7 -11 -10 -6 -10 22 0 37 14 59 23 36 3 -8 6 -6
6 5 1 9 -3 17 -9 17 -24 0 -39 58 -34 131 6 77 14 106 14 50 0 -18 4 -30 8
-27 10 6 3 66 -7 66 -14 0 -29 -16 -34 -35 -2 -11 -3 -5 -1 12 1 18 -2 35 -7
39 -5 3 -7 10 -3 15 4 6 11 6 20 -2 10 -9 14 -9 14 0 0 6 -6 14 -14 17 -17 7
-13 64 6 75 9 6 7 10 -7 16 -19 7 -18 8 5 14 24 7 24 7 3 8 -18 1 -23 7 -23
30 0 19 6 30 18 33 14 4 18 14 17 44 -1 43 -11 67 -26 59 -5 -4 -9 -2 -9 3 0
5 10 13 23 17 19 6 20 8 4 12 -15 4 -17 11 -12 31 4 15 11 29 15 32 5 3 7 16
3 28 -4 17 -10 21 -24 17 -11 -4 -19 -3 -18 2 1 4 0 13 -1 18 -6 27 -4 41 9
54 11 12 10 17 -5 28 -13 9 -15 16 -8 21 7 4 12 20 12 37 0 16 5 31 11 33 6 2
11 8 11 13 0 6 -4 7 -10 4 -6 -3 -10 4 -10 15 0 16 -4 20 -15 16 -13 -4 -13
-2 -5 13 8 16 6 21 -8 24 -16 4 -16 5 1 6 28 2 19 21 -10 22 -24 2 -25 2 -5 6
24 5 29 19 10 26 -7 2 -1 8 14 12 16 4 25 12 21 18 -3 6 -7 23 -7 39 -1 24 3
28 27 28 17 0 26 4 22 11 -4 6 -23 9 -43 7 -20 -1 -37 2 -39 8 -2 7 6 10 21 7
21 -4 25 -2 21 16 -6 35 -15 42 -43 38 -15 -2 -21 -2 -14 0 6 3 12 9 12 14 0
5 10 14 23 18 l22 9 -24 9 c-21 9 -22 11 -7 25 9 9 16 21 16 27 0 5 16 22 35
37 42 31 44 49 9 58 -22 6 -25 11 -20 32 4 15 2 32 -5 40 -9 11 -8 14 2 14 12
0 12 2 0 9 -11 7 -9 10 8 16 12 4 20 12 18 18 -5 15 -49 11 -59 -6 -6 -9 -8
-9 -8 0 0 6 7 18 15 26 8 8 11 17 8 21 -4 3 -2 6 4 6 5 0 10 13 11 30 1 30
-21 42 -32 18 -3 -7 -3 -1 -1 14 2 16 -1 43 -6 60 -6 22 -6 34 1 36 14 5 13
33 -1 29 -6 -1 -14 4 -16 11 -3 6 0 12 6 12 6 0 11 9 11 21 0 11 5 17 10 14 6
-3 10 1 10 9 0 8 -4 18 -10 21 -5 3 -10 16 -10 28 0 18 2 19 10 7 8 -12 10
-13 10 -1 0 8 -7 23 -17 33 -9 10 -11 18 -5 18 6 0 13 -6 16 -12 3 -7 3 7 0
32 -10 94 -11 140 -2 140 5 0 8 15 6 34 -1 19 -6 32 -10 30 -10 -6 -11 20 -1
30 12 12 13 47 3 64 -9 14 -10 12 -5 -8 l6 -25 -20 25 c-16 20 -17 26 -6 28
18 4 21 82 4 99 -13 13 -3 36 12 28 5 -4 9 -1 9 4 0 6 -4 11 -10 11 -5 0 -10
7 -10 15 0 8 -4 15 -10 15 -5 0 -10 -5 -10 -11 0 -5 -4 -7 -10 -4 -20 12 -9
25 23 26 29 1 29 2 8 8 -25 7 -42 31 -22 31 14 0 14 33 0 47 -8 8 -8 13 0 17
6 4 11 16 11 27 0 10 5 19 11 19 5 0 7 5 4 10 -4 6 -1 18 7 27 12 15 11 15
-10 4 -29 -15 -37 -9 -23 17 8 15 8 22 -2 26 -7 3 -3 7 11 12 17 5 21 11 16
28 -4 11 -12 24 -18 28 -7 5 -4 8 8 8 16 0 16 2 5 16 -10 13 -10 20 5 45 15
25 15 28 1 23 -16 -7 -17 -4 -17 63 -1 30 -4 40 -14 36 -17 -6 -18 9 -2 25 10
10 10 15 -2 22 -9 5 -13 22 -12 44 2 20 -2 36 -8 36 -5 0 -10 5 -10 12 0 7 7
5 18 -5 17 -16 18 -14 16 42 0 32 -4 63 -7 69 -4 5 -1 12 7 15 8 3 13 13 12
22 -3 19 -26 36 -39 28 -8 -5 0 36 9 46 2 2 13 -6 24 -19 25 -28 26 -14 2 21
-9 14 -24 24 -32 22 -13 -4 -13 -3 -1 5 12 9 12 13 2 26 -9 11 -10 16 -2 16 6
0 11 10 10 23 0 12 -3 16 -6 10 -2 -7 -8 -13 -13 -13 -4 0 -2 17 5 38 7 20 9
38 5 40 -5 2 -7 9 -4 16 5 14 -103 213 -141 258 -14 17 -24 37 -21 44 3 7 -9
22 -27 33 -18 11 -41 27 -52 34 -66 46 -133 85 -285 165 -197 103 -259 132
-277 126 -15 -5 -15 -4 -3 5 11 8 -2 17 -65 45 -44 20 -97 45 -117 56 -20 11
-43 20 -51 20 -7 0 -31 13 -53 30 -21 16 -46 30 -55 30 -20 0 -209 97 -231
118 -12 12 -19 39 -23 87 -8 105 -15 137 -36 174 -13 22 -16 36 -10 41 6 3 12
23 13 43 2 20 6 37 9 37 4 0 7 21 6 48 0 54 3 72 19 89 17 18 15 93 -2 110
-19 19 -18 63 1 63 22 0 38 38 31 75 -6 29 4 116 20 186 4 20 1 27 -20 37 -23
10 -25 16 -20 49 3 21 7 40 9 42 2 2 10 -19 19 -45 11 -37 15 -43 15 -22 1 15
5 29 10 32 7 5 7 40 -2 189 -3 53 -22 63 -87 46 -11 -3 -14 3 -12 26 2 17 4
95 5 175 0 122 -4 165 -26 268 -44 204 -73 252 -232 372 -112 86 -216 135
-353 166 -101 23 -231 32 -245 17z m113 -624 c0 -7 20 -10 57 -7 50 3 58 0 61
-16 2 -10 0 -21 -5 -25 -4 -3 -16 -15 -25 -26 -17 -20 -17 -20 85 -11 56 5
145 10 197 10 81 1 101 -2 138 -22 23 -12 48 -31 54 -42 8 -13 24 -20 44 -20
28 0 34 -5 55 -52 33 -74 34 -79 3 -30 -18 29 -33 42 -49 42 -22 0 -22 -3 -18
-64 7 -78 -18 -140 -76 -185 -56 -45 -188 -64 -275 -40 -74 21 -177 154 -192
249 l-6 35 -69 -3 c-63 -3 -83 -12 -60 -27 5 -3 12 -1 16 5 3 5 28 10 56 10
l49 0 0 -35 c0 -22 -8 -43 -20 -55 -20 -20 -20 -20 -40 2 -11 12 -20 25 -20
30 0 4 -9 12 -19 18 -18 9 -21 5 -31 -45 -16 -75 -65 -169 -106 -203 -46 -38
-96 -52 -175 -50 l-64 1 75 7 c86 8 134 27 172 67 36 38 64 103 47 113 -6 4
-8 13 -5 19 4 6 0 14 -8 17 -9 3 -16 17 -16 30 0 17 4 22 15 18 8 -4 15 -14
15 -24 0 -11 5 -22 10 -25 7 -4 9 3 5 22 -5 22 -4 25 5 13 9 -13 11 -12 8 4
-5 29 -55 32 -79 5 -10 -12 -19 -17 -19 -12 0 6 -13 13 -29 15 -17 2 -28 1
-25 -4 3 -4 -2 -8 -10 -8 -9 0 -21 9 -28 20 -7 11 -20 20 -30 20 -9 0 -20 5
-23 10 -4 6 -10 8 -14 5 -5 -2 -1 11 7 30 21 46 38 50 69 17 l25 -27 -3 25
c-4 22 0 26 31 30 l35 6 -40 7 c-22 4 -53 7 -69 7 -54 0 -21 9 74 20 131 15
141 19 101 36 -31 13 -67 42 -60 48 19 16 46 23 59 16 21 -11 88 4 109 24 18
19 31 21 31 5z m170 -2 c0 -7 -9 -13 -21 -14 -17 -2 -18 1 -9 13 15 17 30 18
30 1z m-495 -298 c-4 -5 -16 -9 -28 -9 -21 1 -21 1 -3 15 20 15 41 11 31 -6z
m105 -15 c0 -2 -7 -4 -15 -4 -8 0 -15 4 -15 10 0 5 7 7 15 4 8 -4 15 -8 15
-10z m-30 -38 c0 -3 -4 -8 -10 -11 -5 -3 -10 -1 -10 4 0 6 5 11 10 11 6 0 10
-2 10 -4z m-136 -21 c3 -9 0 -15 -9 -15 -16 0 -27 14 -18 24 10 10 21 7 27 -9z
m1190 -101 c3 -9 6 -23 6 -32 0 -13 -3 -12 -15 4 -16 21 -19 44 -6 44 5 0 12
-7 15 -16z m-558 -44 c8 0 13 -6 12 -12 -2 -8 5 -12 16 -10 11 2 15 -1 11 -8
-5 -7 2 -9 19 -4 17 4 26 2 26 -6 0 -7 7 -10 15 -6 9 3 19 -3 25 -15 8 -14 17
-18 31 -14 21 7 27 -10 7 -18 -7 -2 -10 -8 -6 -12 4 -4 13 -3 21 3 10 8 16 6
25 -9 7 -11 8 -19 2 -19 -15 0 -12 -37 3 -43 8 -3 11 -19 9 -47 -3 -30 -8 -40
-18 -36 -9 4 -14 -2 -15 -17 -1 -17 -2 -18 -6 -4 -2 9 -9 15 -14 12 -5 -4 -9
-1 -9 6 0 7 -6 5 -13 -6 -9 -12 -16 -14 -21 -7 -4 6 -13 9 -21 6 -8 -4 -18 1
-21 10 -5 12 -10 14 -19 6 -15 -13 -39 31 -55 104 -12 54 -56 136 -73 137 -7
0 -3 4 8 9 11 5 26 7 33 4 8 -2 20 -4 28 -4z m-166 -60 c14 -11 33 -20 42 -20
46 0 98 -50 85 -82 -3 -8 -6 -5 -6 8 -1 31 -71 51 -104 29 -25 -16 -52 -62
-48 -80 1 -5 -3 -4 -10 3 -7 6 -20 12 -29 12 -17 0 -50 49 -50 74 0 9 -5 16
-11 16 -21 0 16 26 40 27 13 1 31 9 40 18 19 19 21 19 51 -5z m-354 -69 c-4
-5 -1 -11 6 -13 7 -3 8 -9 3 -18 -5 -8 -8 -28 -7 -45 4 -39 -21 -75 -39 -57
-11 10 -10 12 0 12 7 0 11 6 8 14 -5 12 -2 30 19 104 2 6 6 12 9 12 4 0 4 -4
1 -9z m422 -458 c2 -8 -6 -13 -20 -13 -13 0 -28 -4 -33 -9 -15 -13 -92 -24
-99 -13 -3 5 -17 7 -31 4 -15 -2 -25 0 -25 7 0 7 8 11 18 10 9 -1 25 1 35 6 9
4 26 5 37 2 11 -3 20 -1 20 3 0 20 91 22 98 3z m42 3 c0 -3 -4 -8 -10 -11 -5
-3 -10 -1 -10 4 0 6 5 11 10 11 6 0 10 -2 10 -4z m-44 -143 c-31 -26 -89 -33
-80 -8 4 8 9 15 13 16 3 0 16 2 29 3 12 2 28 8 34 14 6 6 16 8 21 5 6 -3 -2
-16 -17 -30z m-98 -5 c4 -20 -32 -25 -58 -8 -13 9 -13 11 0 20 22 15 54 8 58
-12z m765 -673 c-7 -21 -13 -19 -13 6 0 11 4 18 10 14 5 -3 7 -12 3 -20z
m-605 -23 c2 -13 -4 -32 -14 -43 -25 -27 -60 -24 -81 7 -16 26 -16 27 7 46 33
27 84 21 88 -10z m-161 -24 c-3 -7 -5 -2 -5 12 0 14 2 19 5 13 2 -7 2 -19 0
-25z m268 2 c10 -11 16 -20 13 -20 -3 0 -13 9 -23 20 -10 11 -16 20 -13 20 3
0 13 -9 23 -20z m71 -61 c4 -8 1 -8 -14 0 -12 6 -24 16 -28 22 -4 8 -1 8 14 0
12 -6 24 -16 28 -22z m384 18 c0 -2 -11 -18 -25 -37 -14 -19 -25 -31 -25 -27
0 5 10 21 22 37 20 27 28 35 28 27z m-336 -62 c14 -13 26 -27 26 -30 0 -9 -59
38 -59 48 -1 12 4 9 33 -18z m76 -54 c0 -5 8 -12 18 -15 19 -6 48 -76 32 -76
-5 0 -12 9 -15 21 -4 11 -21 34 -37 50 -23 21 -27 29 -14 29 9 0 16 -4 16 -9z
m-525 -60 c-3 -6 -14 -11 -23 -11 -15 1 -15 2 2 15 21 16 32 13 21 -4z m598
-71 c3 -10 -1 -27 -9 -37 -12 -16 -13 -14 -14 20 0 39 14 50 23 17z m-339 -92
c20 -28 20 -62 1 -78 -19 -16 -38 -2 -56 42 -11 27 -10 32 6 44 25 19 31 18
49 -8z m-44 -188 c0 -5 -2 -10 -4 -10 -3 0 -8 5 -11 10 -3 6 -1 10 4 10 6 0
11 -4 11 -10z m70 -330 c0 -5 -5 -10 -11 -10 -5 0 -7 5 -4 10 3 6 8 10 11 10
2 0 4 -4 4 -10z m5 -30 c3 -5 1 -10 -4 -10 -6 0 -11 5 -11 10 0 6 2 10 4 10 3
0 8 -4 11 -10z m-10 -140 c3 -5 1 -10 -4 -10 -6 0 -11 5 -11 10 0 6 2 10 4 10
3 0 8 -4 11 -10z m-14 -107 c-9 -15 -10 -12 -10 17 0 29 1 32 10 18 7 -12 7
-24 0 -35z m289 12 c0 -8 -4 -15 -10 -15 -5 0 -7 7 -4 15 4 8 8 15 10 15 2 0
4 -7 4 -15z m-302 -85 c-7 -10 -14 -18 -15 -16 -6 6 9 36 18 36 5 0 4 -9 -3
-20z m632 -50 c0 -5 -4 -10 -9 -10 -6 0 -13 5 -16 10 -3 6 1 10 9 10 9 0 16
-4 16 -10z m-655 -30 c3 -5 -1 -10 -10 -10 -9 0 -13 5 -10 10 3 6 8 10 10 10
2 0 7 -4 10 -10z m622 -92 c-2 -13 -4 -5 -4 17 -1 22 1 32 4 23 2 -10 2 -28 0
-40z m-473 29 c29 -21 23 -67 -10 -94 l-28 -22 -23 21 c-55 51 2 138 61 95z
m-164 -18 c0 -6 -4 -7 -10 -4 -5 3 -10 11 -10 16 0 6 5 7 10 4 6 -3 10 -11 10
-16z m10 -129 c0 -10 -7 -20 -15 -24 -10 -4 -15 1 -15 14 0 11 6 20 13 21 10
0 10 2 0 6 -7 2 -13 9 -13 15 0 6 6 6 15 -2 8 -7 15 -20 15 -30z m630 20 c0
-5 -5 -10 -11 -10 -5 0 -7 5 -4 10 3 6 8 10 11 10 2 0 4 -4 4 -10z m1370 -54
c0 -3 -4 -8 -10 -11 -5 -3 -10 -1 -10 4 0 6 5 11 10 11 6 0 10 -2 10 -4z
m-2013 -228 c-3 -7 -5 -2 -5 12 0 14 2 19 5 13 2 -7 2 -19 0 -25z m2003 -148
c0 -5 -5 -10 -11 -10 -5 0 -7 5 -4 10 3 6 8 10 11 10 2 0 4 -4 4 -10z m40 -10
c0 -5 -4 -10 -10 -10 -5 0 -10 5 -10 10 0 6 5 10 10 10 6 0 10 -4 10 -10z
m-2040 -39 c0 -6 -5 -13 -11 -16 -6 -4 -8 -14 -4 -24 5 -12 3 -13 -5 -5 -13
13 -5 54 11 54 5 0 9 -4 9 -9z m2045 -41 c3 -6 -1 -7 -9 -4 -18 7 -21 14 -7
14 6 0 13 -4 16 -10z m-1745 -10 c0 -5 -2 -10 -4 -10 -3 0 -8 5 -11 10 -3 6
-1 10 4 10 6 0 11 -4 11 -10z m-301 -84 c0 -7 -2 -6 -6 2 -2 6 -9 10 -14 6 -5
-3 -9 2 -9 12 0 13 3 14 15 4 8 -7 15 -18 14 -24z m592 11 c-10 -9 -11 -8 -5
6 3 10 9 15 12 12 3 -3 0 -11 -7 -18z m1439 3 c0 -5 -2 -10 -4 -10 -3 0 -8 5
-11 10 -3 6 -1 10 4 10 6 0 11 -4 11 -10z m-2040 -80 c-18 -11 -24 -6 -16 16
5 14 9 15 19 5 9 -9 9 -14 -3 -21z m605 0 c3 -5 1 -10 -4 -10 -6 0 -11 5 -11
10 0 6 2 10 4 10 3 0 8 -4 11 -10z m-598 -36 c-3 -3 -12 -4 -19 -1 -8 3 -5 6
6 6 11 1 17 -2 13 -5z m3 -50 c0 -2 -7 -4 -15 -4 -8 0 -15 4 -15 10 0 5 7 7
15 4 8 -4 15 -8 15 -10z m2027 -16 c-3 -8 -6 -5 -6 6 -1 11 2 17 5 13 3 -3 4
-12 1 -19z m-2030 -24 c-3 -3 -12 -4 -19 -1 -8 3 -5 6 6 6 11 1 17 -2 13 -5z
m-16 -113 c-8 -5 -11 -16 -8 -25 4 -9 2 -16 -3 -16 -11 0 -13 30 -4 55 5 12
10 13 18 5 8 -8 7 -13 -3 -19z m316 7 c-3 -8 -6 -5 -6 6 -1 11 2 17 5 13 3 -3
4 -12 1 -19z m313 -9 c0 -6 -4 -7 -10 -4 -5 3 -10 11 -10 16 0 6 5 7 10 4 6
-3 10 -11 10 -16z m-310 -33 c0 -8 -4 -18 -10 -21 -5 -3 -10 3 -10 14 0 12 5
21 10 21 6 0 10 -6 10 -14z m1732 -148 c-22 -23 -30 -16 -13 11 6 9 6 23 -1
35 -10 20 -9 19 13 -1 l23 -23 -22 -22z m-2052 6 c0 -8 -4 -14 -10 -14 -5 0
-10 9 -10 21 0 11 5 17 10 14 6 -3 10 -13 10 -21z m173 -25 c33 -46 -23 -115
-68 -85 -23 15 -32 70 -14 92 17 21 65 17 82 -7z m127 -59 c0 -5 -5 -10 -11
-10 -5 0 -7 5 -4 10 3 6 8 10 11 10 2 0 4 -4 4 -10z m-300 -20 c0 -5 -4 -10
-10 -10 -5 0 -10 5 -10 10 0 6 5 10 10 10 6 0 10 -4 10 -10z m1362 -32 c-4
-33 -6 -38 -14 -24 -10 18 -3 66 10 66 4 0 6 -19 4 -42z m-1062 12 c0 -5 -5
-10 -11 -10 -5 0 -7 5 -4 10 3 6 8 10 11 10 2 0 4 -4 4 -10z m-300 -70 c0 -5
-2 -10 -4 -10 -3 0 -8 5 -11 10 -3 6 -1 10 4 10 6 0 11 -4 11 -10z m10 -34 c0
-2 -7 -6 -15 -10 -8 -3 -15 -1 -15 4 0 6 7 10 15 10 8 0 15 -2 15 -4z m-13
-98 c-3 -8 -6 -5 -6 6 -1 11 2 17 5 13 3 -3 4 -12 1 -19z m310 -80 c-3 -8 -6
-5 -6 6 -1 11 2 17 5 13 3 -3 4 -12 1 -19z m1773 -284 c0 -7 -8 -10 -20 -7
-11 3 -20 9 -20 14 0 4 9 7 20 6 11 -1 20 -7 20 -13z m-2047 -204 c-7 -28 -13
-25 -13 6 0 14 4 23 9 20 5 -3 7 -15 4 -26z m-3 -175 c0 -2 -7 -5 -15 -9 -9
-3 -15 0 -15 9 0 9 6 12 15 9 8 -4 15 -7 15 -9z m2080 -25 c0 -5 -5 -10 -11
-10 -5 0 -7 5 -4 10 3 6 8 10 11 10 2 0 4 -4 4 -10z m-2103 -154 c-4 -9 -11
-16 -18 -16 -6 0 -8 7 -5 16 3 9 6 25 7 37 l0 22 11 -22 c6 -12 8 -29 5 -37z
m121 2 c13 -13 16 -47 6 -72 -10 -26 -41 -38 -64 -26 -23 12 -25 37 -9 74 10
22 20 29 50 35 3 0 10 -4 17 -11z m1942 -172 c0 -3 -4 -8 -10 -11 -5 -3 -10
-1 -10 4 0 6 5 11 10 11 6 0 10 -2 10 -4z m-2098 -48 c-9 -9 -12 -7 -12 12 0
19 3 21 12 12 9 -9 9 -15 0 -24z m2128 -8 c0 -5 -5 -10 -11 -10 -5 0 -7 5 -4
10 3 6 8 10 11 10 2 0 4 -4 4 -10z"/>
<path d="M4883 6154 c-13 -3 -23 -9 -23 -14 0 -4 10 -6 22 -2 14 3 19 2 14 -6
-5 -8 3 -12 23 -12 24 0 31 -4 31 -19 0 -10 -7 -22 -16 -25 -9 -3 -14 -12 -11
-19 3 -6 8 -19 12 -28 5 -13 -4 -19 -39 -29 -25 -7 -43 -16 -41 -21 3 -4 1
-10 -5 -14 -7 -4 -7 -13 1 -26 14 -27 6 -33 -27 -22 -34 11 -40 26 -19 46 8 9
15 20 15 25 0 15 -59 25 -73 13 -10 -8 -18 -2 -31 20 -20 34 -32 29 -40 -15
-3 -16 -10 -34 -15 -39 -6 -6 -4 -24 5 -50 17 -49 33 -69 47 -60 5 3 7 1 3 -5
-6 -11 9 -25 31 -28 6 -1 14 4 17 11 4 11 13 12 38 5 21 -6 36 -6 42 0 6 6 23
10 39 10 16 0 26 4 22 10 -3 6 1 10 10 10 9 0 13 -4 10 -10 -3 -5 -1 -10 4
-10 19 0 12 -30 -6 -31 -15 0 -14 -2 4 -11 17 -8 26 -7 40 8 17 17 17 17 1 11
-12 -4 -18 -2 -18 8 0 9 6 12 15 9 9 -4 15 0 15 10 0 9 5 16 10 16 6 0 10 -7
10 -15 0 -8 -4 -15 -8 -15 -5 0 -7 -13 -4 -28 3 -24 8 -28 28 -24 27 5 90 70
104 108 12 29 13 82 4 148 -5 35 -11 46 -23 44 -8 -2 -16 3 -16 11 0 37 -128
71 -202 55z m194 -196 c-2 -18 -4 -6 -4 27 0 33 2 48 4 33 2 -15 2 -42 0 -60z
m-368 -20 c1 -5 -3 -8 -9 -8 -5 0 -10 8 -10 18 0 14 -2 15 -10 2 -8 -13 -10
-13 -10 2 0 35 36 22 39 -14z m408 1 c-8 -61 -22 -66 -22 -9 0 36 3 50 14 50
10 0 12 -10 8 -41z m-232 -69 c3 -5 1 -10 -4 -10 -6 0 -11 5 -11 10 0 6 2 10
4 10 3 0 8 -4 11 -10z"/>
<path d="M4615 6130 c-22 -4 -32 -8 -22 -9 9 0 17 -5 17 -11 0 -5 5 -10 11
-10 5 0 7 5 3 12 -4 7 -3 8 4 4 6 -4 24 0 39 8 32 17 19 19 -52 6z"/>
<path d="M4422 6111 l-52 -6 45 -18 c26 -11 42 -23 38 -30 -4 -7 0 -8 11 -4
10 4 29 7 42 7 13 0 24 5 24 10 0 7 -13 8 -35 4 -24 -4 -35 -3 -35 6 0 7 7 10
15 6 8 -3 14 0 12 6 -1 7 12 15 28 19 30 7 30 7 -5 6 -19 0 -59 -3 -88 -6z"/>
<path d="M4570 6079 c-14 -4 -18 -7 -8 -8 9 -1 23 -4 31 -7 8 -3 17 1 20 9 6
15 -6 17 -43 6z"/>
<path d="M4416 6047 c3 -10 9 -15 12 -12 3 3 0 11 -7 18 -10 9 -11 8 -5 -6z"/>
<path d="M4315 6030 c-3 -5 -1 -10 4 -10 6 0 11 5 11 10 0 6 -2 10 -4 10 -3 0
-8 -4 -11 -10z"/>
<path d="M4868 5833 c7 -3 16 -2 19 1 4 3 -2 6 -13 5 -11 0 -14 -3 -6 -6z"/>
<path d="M4880 5620 c0 -5 5 -10 11 -10 5 0 7 5 4 10 -3 6 -8 10 -11 10 -2 0
-4 -4 -4 -10z"/>
<path d="M4950 5559 c0 -5 5 -7 10 -4 6 3 10 8 10 11 0 2 -4 4 -10 4 -5 0 -10
-5 -10 -11z"/>
<path d="M4978 5543 c-3 -4 1 -19 9 -33 l13 -25 -3 27 c-3 30 -12 44 -19 31z"/>
<path d="M4966 5507 c3 -10 9 -15 12 -12 3 3 0 11 -7 18 -10 9 -11 8 -5 -6z"/>
<path d="M4362 6845 c-11 -12 -10 -15 3 -15 8 0 15 7 15 15 0 18 -2 18 -18 0z"/>
<path d="M2332 6482 c-20 -15 -23 -24 -17 -53 3 -19 7 -45 8 -57 l1 -24 21 25
c59 72 57 67 37 67 -14 0 -13 4 7 19 l24 19 -21 11 c-27 15 -33 14 -60 -7z"/>
<path d="M1816 6101 c-4 -7 -5 -15 -2 -18 9 -9 19 4 14 18 -4 11 -6 11 -12 0z"/>
<path d="M1785 5940 c-3 -5 1 -10 9 -10 9 0 16 5 16 10 0 6 -4 10 -9 10 -6 0
-13 -4 -16 -10z"/>
<path d="M1926 5806 c-9 -21 -16 -42 -16 -47 0 -5 -4 -9 -10 -9 -5 0 -10 -4
-10 -9 0 -5 9 -7 20 -4 13 3 24 19 31 45 14 55 5 71 -15 24z"/>
<path d="M6740 3558 c0 -9 5 -20 10 -23 13 -8 13 5 0 25 -8 13 -10 13 -10 -2z"/>
<path d="M536 3461 c19 -19 60 -23 73 -7 12 14 8 16 -35 16 -30 0 -44 -4 -38
-9z"/>
<path d="M751 3025 c-39 -45 -39 -61 0 -69 39 -7 109 -8 109 -1 0 14 -31 62
-53 83 l-24 23 -32 -36z"/>
<path d="M1055 2662 c-44 -12 -76 -24 -176 -65 -20 -8 -33 -6 -59 6 -18 10
-39 17 -45 17 -13 0 -27 -35 -30 -75 -1 -11 -5 -27 -8 -35 -9 -21 3 -37 43
-54 38 -16 30 -23 -30 -28 l-35 -3 3 -55 c8 -139 57 -292 100 -312 15 -7 31
-23 37 -36 13 -30 23 -28 17 3 -2 15 0 25 7 25 6 0 11 -11 11 -25 0 -26 15
-34 23 -12 2 6 8 9 12 5 4 -4 1 -13 -6 -21 -17 -17 -59 -28 -59 -16 0 5 -4 9
-10 9 -5 0 -10 -17 -10 -39 0 -34 4 -41 34 -55 58 -28 154 -18 178 18 5 7 8 6
8 -3 0 -8 2 -12 5 -9 9 9 -6 38 -19 38 -21 0 -37 47 -26 76 6 14 10 46 10 71
0 26 6 69 14 97 8 28 24 95 37 148 18 81 27 102 55 129 45 44 56 117 25 177
-23 45 -28 46 -106 24z m-48 -714 c-3 -8 -6 -5 -6 6 -1 11 2 17 5 13 3 -3 4
-12 1 -19z"/>
<path d="M6795 2630 c3 -5 8 -10 11 -10 2 0 4 5 4 10 0 6 -5 10 -11 10 -5 0
-7 -4 -4 -10z"/>
<path d="M560 1990 c0 -6 6 -25 13 -43 8 -18 13 -43 12 -56 -1 -13 14 -53 32
-90 l35 -66 -7 45 c-3 25 -10 75 -14 111 -5 36 -14 76 -20 88 -12 21 -51 30
-51 11z"/>
<path d="M6804 1884 c4 -16 2 -32 -6 -42 -8 -10 -9 -13 -1 -9 6 4 13 2 16 -5
2 -7 3 -5 2 4 -2 10 0 20 5 23 10 6 0 55 -12 55 -6 0 -7 -11 -4 -26z"/>
<path d="M1810 1790 c0 -17 -32 -47 -59 -55 -12 -4 -39 -18 -58 -31 -19 -13
-51 -26 -69 -30 -19 -4 -33 -11 -31 -18 5 -15 202 -13 240 2 27 11 28 14 25
74 -3 57 -5 63 -25 66 -13 2 -23 -2 -23 -8z"/>
<path d="M892 1748 c3 -7 12 -14 21 -16 12 -2 15 1 11 12 -7 19 -38 22 -32 4z"/>
<path d="M1316 1655 c-3 -9 -6 -19 -6 -21 0 -8 169 -4 174 5 3 5 -20 11 -52
14 -31 3 -69 9 -83 12 -19 5 -28 2 -33 -10z"/>
<path d="M876 1574 c16 -50 21 -62 48 -126 30 -71 50 -113 55 -118 4 -3 17
-27 30 -55 12 -27 27 -58 32 -67 5 -10 13 -34 18 -55 5 -21 28 -98 50 -172 23
-74 41 -140 41 -146 0 -7 6 -18 14 -24 11 -9 11 1 0 66 -7 43 -22 139 -34 213
-11 74 -30 178 -42 230 -11 52 -24 123 -29 157 -4 34 -15 77 -23 97 -15 35
-16 36 -73 36 -32 0 -68 3 -80 6 l-23 6 16 -48z"/>
<path d="M6816 1394 c-8 -22 -8 -24 7 -24 7 0 13 9 13 20 0 24 -11 26 -20 4z"/>
<path d="M6825 820 c-3 -5 1 -10 10 -10 9 0 13 5 10 10 -3 6 -8 10 -10 10 -2
0 -7 -4 -10 -10z"/>
<path d="M1172 770 c0 -14 2 -19 5 -12 2 6 2 18 0 25 -3 6 -5 1 -5 -13z"/>
<path d="M2460 650 c-89 -7 -66 -14 47 -15 41 0 64 4 68 13 2 7 -3 11 -13 10
-9 -1 -55 -5 -102 -8z"/>
<path d="M1596 587 c3 -10 9 -15 12 -12 3 3 0 11 -7 18 -10 9 -11 8 -5 -6z"/>
<path d="M6873 485 c0 -8 4 -12 9 -9 5 3 6 10 3 15 -9 13 -12 11 -12 -6z"/>
<path d="M1005 373 c3 -7 1 -21 -4 -32 -9 -15 -8 -19 5 -17 18 3 39 34 30 43
-3 4 -6 0 -6 -7 0 -9 -5 -7 -16 6 -8 10 -13 13 -9 7z"/>
<path d="M6865 350 c3 -5 8 -10 11 -10 2 0 4 5 4 10 0 6 -5 10 -11 10 -5 0 -7
-4 -4 -10z"/>
<path d="M6857 183 c-10 -9 -9 -23 2 -23 5 0 11 7 15 15 5 15 -5 20 -17 8z"/>
<path d="M1253 124 c3 -4 -2 -14 -12 -23 -10 -9 -26 -35 -35 -58 l-16 -43 25
0 c14 0 25 5 25 11 0 5 11 26 24 46 20 29 22 39 13 54 -7 11 -16 19 -21 19 -5
0 -7 -3 -3 -6z"/>
</g>
</svg>
