<?xml version="1.0" standalone="no"?>
<!DOCTYPE svg PUBLIC "-//W3C//DTD SVG 20010904//EN"
 "http://www.w3.org/TR/2001/REC-SVG-20010904/DTD/svg10.dtd">
<svg version="1.0" xmlns="http://www.w3.org/2000/svg"
 width="692.000000pt" height="692.000000pt" viewBox="0 0 692.000000 692.000000"
 preserveAspectRatio="xMidYMid meet">

<g transform="translate(0.000000,692.000000) scale(0.100000,-0.100000)"
fill="#000000" stroke="none">
<path d="M3060 6915 c-8 -2 -55 -9 -105 -15 -242 -32 -518 -106 -770 -207
-284 -115 -546 -262 -805 -452 -159 -116 -438 -385 -584 -561 -106 -129 -89
-107 -168 -220 -163 -235 -259 -413 -373 -685 -7 -16 -18 -43 -25 -60 -44
-106 -126 -384 -156 -535 -46 -230 -64 -387 -71 -630 -5 -171 -2 -238 16 -404
12 -110 24 -202 26 -205 2 -4 11 -51 20 -106 9 -55 22 -122 30 -150 8 -27 27
-93 41 -145 29 -103 62 -206 93 -285 41 -106 61 -156 70 -173 5 -9 31 -62 57
-117 27 -55 53 -107 60 -115 6 -8 28 -45 48 -82 46 -87 86 -151 100 -160 6 -5
7 -8 1 -8 -6 0 -6 -3 1 -8 6 -4 30 -36 54 -72 24 -36 47 -66 52 -68 4 -2 8 -8
8 -14 0 -5 27 -43 60 -83 33 -40 60 -76 60 -79 0 -3 24 -30 53 -59 28 -30 65
-71 82 -91 16 -20 34 -36 40 -36 6 0 16 -9 23 -20 7 -11 19 -20 28 -20 8 0 13
-4 9 -10 -5 -9 21 -38 93 -105 28 -25 35 -27 43 -15 9 12 10 12 5 -3 -7 -22
38 -63 178 -164 34 -25 74 -56 114 -91 15 -12 33 -20 40 -17 6 2 12 -2 12 -10
0 -8 5 -15 10 -15 5 0 19 -9 30 -20 11 -11 31 -22 46 -26 14 -4 36 -17 49 -30
13 -13 31 -24 40 -24 8 0 15 -4 15 -9 0 -5 10 -13 22 -17 26 -9 24 -9 58 1 16
4 20 3 12 -3 -17 -11 -4 -43 17 -41 25 3 81 -13 81 -22 0 -5 -8 -9 -17 -9 -10
0 15 -16 56 -35 40 -19 85 -35 99 -35 20 0 23 -3 13 -9 -16 -10 2 -17 59 -23
14 -2 24 -7 22 -12 -4 -10 34 -28 82 -40 26 -6 28 -5 17 8 -12 14 -10 16 11
16 14 0 28 3 32 7 3 4 17 8 29 10 22 3 22 2 -3 -18 l-25 -21 45 5 c30 4 37 4
20 -2 l-25 -8 25 -5 c14 -3 0 -3 -30 0 -45 3 -53 2 -43 -9 7 -7 29 -13 48 -12
19 1 35 -4 35 -9 0 -6 11 -8 24 -4 15 4 28 0 36 -9 16 -19 44 -19 60 0 10 12
9 15 -6 16 -14 0 -15 2 -4 6 26 11 42 31 27 37 -26 11 25 36 63 31 30 -5 29
-3 -14 12 -27 10 -52 25 -55 33 -3 9 -21 16 -41 17 -101 6 -117 8 -109 14 5 3
-8 12 -31 19 -41 14 -53 30 -22 30 9 1 -1 8 -23 16 -22 8 -53 12 -68 9 -17 -3
-26 -1 -22 5 3 6 14 10 23 11 14 0 13 2 -3 9 -11 4 -24 4 -29 -1 -6 -5 -19 -8
-30 -8 -17 1 -18 2 -4 6 28 7 21 21 -16 34 -19 7 -33 16 -30 21 3 4 -5 9 -18
10 -13 1 -30 2 -38 4 -8 1 -21 2 -29 3 -8 1 -11 4 -8 8 9 9 -28 34 -45 30 -7
-2 -10 -2 -6 0 11 6 -18 33 -35 33 -8 0 -20 7 -27 15 -6 8 -22 17 -33 21 -12
4 -34 15 -49 25 -14 11 -36 19 -47 19 -12 0 -20 4 -18 9 1 5 -34 33 -78 62
-80 54 -105 73 -105 82 0 7 52 25 94 32 46 8 166 61 166 74 0 5 9 11 21 14 12
3 18 10 14 16 -3 7 0 8 10 5 10 -4 31 10 63 43 86 90 96 104 81 115 -11 8 -10
9 2 5 20 -7 75 92 66 117 -4 10 -1 16 7 16 15 0 31 64 20 82 -4 6 -3 8 3 5 12
-7 23 46 23 109 0 48 -26 207 -39 232 -4 9 -22 45 -39 79 -18 35 -32 69 -32
75 0 7 55 68 123 135 67 66 132 133 144 147 48 55 48 57 46 -421 -1 -247 1
-460 4 -476 5 -27 7 -27 87 -29 l81 -2 -75 -3 c-41 -2 -79 -8 -84 -13 -14 -14
99 -24 135 -11 17 6 35 8 40 5 5 -3 9 248 9 593 l0 598 160 160 c88 87 162
156 166 152 4 -4 9 -229 12 -499 2 -271 6 -495 9 -498 3 -3 45 -7 94 -8 l89
-4 0 612 0 613 154 156 c85 85 157 153 160 150 3 -3 7 -379 8 -836 2 -457 1
-830 -1 -827 -5 4 -30 -27 -31 -38 0 -4 6 -5 14 -2 10 4 14 -2 12 -19 -1 -21
-5 -23 -33 -21 -25 2 -33 -2 -34 -14 0 -14 -2 -13 -8 2 -6 17 -8 17 -14 4 -3
-9 -3 -19 1 -23 4 -4 7 -16 7 -28 1 -16 -5 -22 -24 -24 -15 -1 -19 2 -11 7 7
4 9 13 5 20 -6 9 -13 6 -27 -11 -11 -13 -17 -17 -13 -9 4 8 -9 -3 -29 -25 -19
-22 -35 -43 -36 -47 0 -12 28 -10 33 2 3 6 4 5 3 -2 -1 -7 -15 -13 -29 -14
-16 -1 -24 3 -20 10 3 6 -2 4 -12 -6 -11 -10 -14 -21 -9 -30 18 -27 11 -53
-15 -55 -15 -1 -19 2 -11 7 7 4 9 13 6 19 -5 7 -20 -1 -42 -23 -38 -36 -43
-49 -17 -39 15 6 16 5 3 -9 -8 -9 -16 -12 -18 -7 -5 12 -32 12 -32 -1 0 -5 8
-14 18 -19 22 -14 6 -14 -18 -1 -16 9 -18 8 -14 -5 5 -11 2 -13 -10 -9 -16 6
-22 -7 -8 -20 4 -4 7 -17 7 -29 1 -17 -5 -22 -25 -24 -14 -1 -31 4 -38 9 -10
8 -11 6 -6 -8 4 -10 4 -16 -1 -12 -9 8 -35 -9 -35 -23 0 -5 8 -5 17 -2 15 6
16 5 3 -9 -8 -9 -16 -12 -18 -7 -5 12 -32 12 -32 -1 0 -5 8 -14 18 -19 22 -14
6 -14 -18 -1 -16 9 -18 8 -14 -5 5 -11 2 -13 -10 -9 -16 6 -22 -7 -8 -20 4 -4
7 -17 7 -29 1 -17 -5 -22 -25 -24 -14 -1 -31 4 -38 9 -10 8 -11 6 -6 -8 4 -10
4 -16 -1 -12 -9 8 -35 -9 -35 -23 0 -5 8 -5 17 -2 15 6 16 5 3 -9 -8 -9 -16
-12 -18 -7 -5 12 -32 12 -32 -1 0 -5 8 -13 17 -19 14 -7 13 -9 -9 -8 -14 1
-24 7 -21 12 3 6 -2 2 -12 -7 -15 -14 -16 -20 -6 -32 7 -8 10 -20 6 -26 -4 -6
-1 -17 5 -25 10 -12 9 -15 -4 -15 -10 0 -14 5 -10 11 4 8 -1 9 -17 4 -18 -5
-20 -4 -9 4 11 7 12 13 4 21 -9 9 -17 2 -33 -24 -13 -20 -20 -40 -16 -46 3 -6
0 -7 -10 -4 -12 5 -13 9 -4 20 8 9 8 14 1 14 -6 0 -14 -5 -18 -11 -9 -15 116
-138 133 -132 16 6 1 28 -20 28 -7 1 -11 6 -10 13 2 7 -3 12 -11 12 -8 0 -16
6 -19 14 -4 10 0 12 14 9 18 -5 24 -16 20 -38 -2 -5 10 3 25 18 25 25 48 33
84 27 12 -2 12 1 -2 17 -16 18 -16 20 8 48 23 27 26 28 41 12 16 -16 16 -17
-1 -17 -22 0 -50 -26 -37 -35 14 -8 63 36 57 52 -3 8 1 10 12 6 16 -6 16 -5 0
13 -26 30 2 60 52 55 8 -1 0 -9 -18 -18 -21 -10 -29 -20 -24 -25 13 -13 64 32
58 49 -3 8 1 10 12 6 16 -6 16 -5 0 13 -16 19 -16 21 8 49 23 27 26 28 41 12
16 -16 16 -17 -1 -17 -22 0 -50 -26 -37 -35 14 -8 63 36 57 52 -3 8 1 10 12 6
16 -6 16 -5 0 13 -26 30 2 60 52 55 8 -1 0 -9 -18 -18 -21 -10 -29 -20 -24
-25 13 -13 64 32 58 49 -3 8 1 10 12 6 16 -6 15 -5 -1 14 -17 19 -16 21 9 47
22 22 29 24 42 14 13 -11 13 -13 -3 -17 -25 -4 -48 -28 -36 -36 14 -8 63 36
57 52 -3 8 1 10 12 6 16 -6 16 -5 0 14 -17 18 -17 20 2 41 22 24 29 26 47 14
8 -5 2 -12 -18 -21 -20 -9 -27 -17 -21 -23 13 -13 64 31 58 49 -3 8 1 10 12 6
16 -6 16 -5 0 13 -14 16 -14 22 -3 37 7 10 23 20 36 22 12 3 26 10 31 17 6 9
8 7 6 -7 -2 -11 -12 -21 -22 -23 -26 -5 -49 -29 -36 -37 13 -8 82 56 76 72 -3
8 7 16 27 22 32 8 32 9 8 18 -24 9 -24 10 -4 15 23 6 33 -13 33 -64 0 -21 5
-28 20 -28 28 0 26 -30 -2 -31 -22 -1 -22 -1 2 -9 46 -15 50 -12 50 31 l0 40
43 -3 c37 -3 42 -6 39 -26 -2 -12 1 -22 7 -22 5 0 12 -10 15 -22 3 -13 3 0 1
28 -4 59 5 79 34 71 12 -3 21 -1 21 4 0 11 -46 23 -59 14 -6 -3 -11 -14 -12
-23 0 -14 -2 -14 -8 2 -9 24 -2 68 10 60 5 -3 7 -10 4 -15 -4 -5 -2 -9 3 -9 5
0 15 11 22 25 7 14 18 25 23 25 5 0 4 -6 -2 -14 -9 -10 -7 -16 5 -27 14 -12
15 -8 13 32 -4 43 -3 44 31 49 44 6 50 31 16 63 -14 13 -23 27 -19 30 3 4 1 7
-4 7 -6 0 -14 -6 -17 -12 -4 -7 -5 -4 -3 7 4 18 0 20 -29 17 -38 -5 -55 18
-36 48 7 12 11 273 13 829 2 597 6 814 14 821 8 7 29 -7 68 -45 31 -30 60 -55
66 -55 6 0 11 -6 11 -12 0 -11 60 -72 142 -145 45 -41 43 -14 46 -635 l3 -588
47 0 c61 0 94 19 37 21 l-40 2 40 7 c38 7 38 7 -17 9 l-58 1 2 93 2 92 3 -87
4 -88 57 1 c31 1 49 3 40 6 -27 7 -22 22 10 29 15 3 30 6 34 7 6 2 22 617 21
832 0 39 2 62 4 53 3 -10 10 -18 18 -18 7 0 15 -7 19 -15 3 -8 11 -15 18 -15
10 0 10 2 1 8 -8 5 -7 12 4 27 14 19 14 17 9 -17 -5 -30 -3 -38 9 -38 9 0 19
-8 22 -17 12 -30 44 -61 70 -68 14 -3 23 -9 20 -12 -12 -11 14 -42 48 -59 19
-9 33 -19 30 -23 -2 -4 9 -23 25 -42 16 -19 29 -29 30 -24 0 6 -10 19 -22 30
-16 13 -18 20 -9 23 7 2 19 -5 27 -17 13 -18 16 -102 17 -569 l2 -547 2 532
c2 293 7 533 12 533 10 0 18 -285 20 -700 1 -156 4 -286 6 -289 3 -2 6 220 7
495 1 274 4 461 7 414 l6 -85 38 -3 c20 -2 37 -7 37 -12 0 -5 7 -7 15 -4 8 4
15 10 15 15 0 5 -7 9 -15 9 -18 0 -20 16 -2 23 10 4 10 6 0 6 -7 1 -13 12 -13
26 0 23 4 25 41 25 36 0 40 3 39 23 -5 55 -2 60 33 53 17 -3 37 -13 44 -22 7
-10 13 -11 18 -5 3 6 1 11 -4 11 -6 0 -11 7 -11 14 0 13 7 13 51 0 28 -8 65
-13 82 -11 29 3 28 4 -8 6 -22 1 -49 8 -59 16 -11 8 -30 15 -43 15 -21 0 -28
10 -24 32 0 5 -36 8 -81 8 -45 0 -79 2 -77 5 7 7 184 13 383 14 99 1 177 3
175 5 -2 3 -127 7 -276 10 -259 5 -273 6 -293 26 -15 15 -28 19 -43 14 -22 -6
-22 -6 -2 10 20 17 20 17 -2 11 -25 -7 -30 4 -11 23 7 7 8 13 2 13 -5 1 -16 2
-24 3 -8 0 -14 9 -14 19 1 9 -5 17 -13 17 -8 0 -12 4 -9 9 6 10 -20 35 -47 44
-10 4 -15 11 -12 17 3 5 -1 10 -10 10 -9 0 -14 4 -11 9 6 10 -20 35 -47 44
-10 4 -16 11 -12 16 6 11 -13 25 -34 26 -8 0 -16 6 -19 14 -3 9 0 11 9 6 8 -5
6 1 -4 12 -12 14 -15 23 -7 28 5 3 8 10 5 15 -3 4 2 11 11 14 24 9 31 7 14 -4
-10 -6 80 -10 263 -10 183 0 276 3 272 10 -4 6 23 10 74 10 47 0 81 -4 81 -10
0 -6 33 -9 83 -8 l82 2 -80 6 -80 6 120 3 c80 2 110 6 90 11 l-30 8 29 1 c21
1 27 5 22 16 -3 8 -1 15 5 15 6 0 9 18 7 43 l-3 42 -162 3 c-90 1 -163 7 -163
12 0 5 19 11 43 13 23 2 -170 4 -429 5 -406 0 -476 2 -500 16 -16 8 -26 15
-21 16 13 0 -56 70 -70 70 -7 0 -12 5 -10 11 1 7 -17 26 -40 44 -23 18 -40 35
-38 37 3 2 -20 28 -50 57 -29 29 -52 58 -49 64 3 9 206 13 821 15 526 2 824 7
836 14 26 13 62 -23 48 -49 -6 -13 -4 -22 7 -33 14 -13 15 -13 10 1 -5 12 1
14 28 11 22 -3 35 -11 39 -23 4 -10 11 -19 16 -19 5 0 9 -5 9 -10 0 -12 -41 7
-52 24 -5 8 -10 8 -18 0 -9 -9 -4 -13 15 -18 18 -5 25 -12 21 -21 -3 -9 0 -12
10 -8 9 3 13 0 11 -8 -2 -8 -2 -11 0 -6 3 4 23 7 46 7 31 0 38 3 27 10 -10 6
-11 10 -2 10 19 0 14 30 -5 31 -14 0 -15 2 -3 6 8 3 23 14 34 24 20 19 41 16
30 -4 -5 -9 -3 -9 6 0 10 9 10 16 2 26 -16 18 4 37 38 37 21 0 26 5 26 22 -1
31 31 36 37 6 3 -17 4 -16 4 7 0 75 0 75 43 75 39 0 40 1 40 36 l0 36 -55 -4
c-31 -3 -58 -1 -61 4 -3 4 -15 8 -27 8 -18 0 -19 -2 -7 -10 8 -5 11 -10 5 -10
-18 1 -47 29 -40 39 3 6 -1 11 -9 11 -22 0 -21 -40 2 -41 9 0 12 -3 6 -5 -6
-3 -20 -1 -31 3 -30 12 -13 53 22 53 14 0 25 5 25 11 0 5 4 8 9 5 5 -3 14 1
21 9 11 13 10 14 -1 10 -11 -4 -15 2 -14 22 0 16 4 34 8 41 10 15 49 16 63 2
8 -8 15 -6 25 6 12 16 12 17 -1 12 -22 -8 -20 46 2 68 13 14 19 14 39 3 22
-12 22 -13 5 -17 -26 -6 -49 -29 -36 -37 6 -3 27 10 48 31 20 20 30 34 22 31
-12 -4 -16 3 -15 27 1 19 -5 34 -14 38 -9 4 5 7 31 6 54 -2 63 3 63 40 0 22 6
28 40 38 33 9 40 15 42 39 3 41 17 51 53 38 24 -9 32 -8 42 5 11 13 11 15 -2
10 -12 -4 -16 1 -15 23 1 35 6 40 47 48 28 6 33 11 33 36 0 17 -6 33 -15 37
-8 4 2 7 25 7 22 0 47 -4 55 -9 13 -8 12 -10 -3 -10 -23 0 -51 -26 -37 -35 6
-3 27 10 48 31 20 20 30 34 21 31 -13 -4 -15 1 -13 25 2 16 6 34 9 39 8 12 52
12 60 -1 3 -5 -3 -10 -14 -10 -12 0 -21 -4 -21 -10 0 -5 -8 -10 -17 -10 -17
-1 -17 -1 0 -11 15 -9 24 -5 48 21 33 34 34 34 -25 92 -22 23 -31 26 -38 16
-7 -10 -9 -10 -7 2 4 37 0 43 -18 29 -15 -12 -16 -12 -10 4 3 9 2 17 -4 17 -6
0 -13 -8 -16 -18 -2 -10 -14 -22 -25 -27 -25 -12 -46 -58 -22 -48 16 6 18 -5
4 -27 -9 -13 -12 -13 -21 3 -11 18 -11 18 -29 0 -10 -10 -41 -38 -69 -63 -49
-43 -64 -70 -40 -70 6 0 8 -7 5 -16 -4 -9 -1 -24 6 -33 11 -14 11 -14 -3 -3
-9 7 -25 10 -35 6 -16 -5 -16 -4 -4 5 11 7 12 13 4 21 -8 8 -30 -7 -83 -59
-63 -62 -88 -93 -62 -76 16 9 24 -15 11 -31 -11 -12 -14 -12 -24 1 -10 13 -21
6 -79 -48 -67 -64 -78 -82 -54 -90 9 -3 9 -7 -2 -20 -12 -16 -15 -16 -25 -1
-10 14 -21 7 -80 -50 -58 -55 -67 -68 -56 -81 10 -12 10 -18 0 -30 -11 -14
-14 -13 -24 1 -11 14 -16 12 -46 -17 -27 -27 -30 -35 -17 -37 9 -2 17 -7 17
-12 0 -15 -21 -23 -33 -11 -16 16 -24 14 -29 -6 -4 -15 -14 -17 -59 -14 -30 2
-404 5 -831 8 -428 2 -778 7 -778 12 0 4 30 37 68 73 37 36 108 108 157 159
l90 94 150 0 c83 0 351 2 598 3 l448 3 -2 88 -1 88 -464 8 c-306 4 -469 4
-477 -3 -8 -7 -16 -5 -25 5 -12 12 8 36 139 169 l153 154 597 0 597 0 1 100 2
99 -491 -2 c-323 -1 -490 1 -490 8 0 6 100 110 223 232 454 454 631 633 624
633 -11 0 -197 -94 -255 -128 -29 -18 -55 -32 -58 -32 -3 0 -42 -23 -87 -52
-152 -96 -341 -245 -462 -362 -66 -64 -124 -115 -128 -113 -4 1 -8 210 -7 463
0 254 -2 467 -5 475 -4 11 -27 16 -85 18 -44 1 -88 0 -97 -3 -17 -5 -18 -39
-13 -583 l5 -578 -25 -35 c-13 -19 -35 -43 -47 -53 -13 -10 -21 -23 -17 -28 3
-5 2 -8 -3 -7 -14 5 -83 -64 -76 -75 3 -6 1 -7 -4 -4 -6 4 -41 -27 -79 -68
-38 -41 -72 -75 -76 -75 -5 0 -8 225 -8 500 l0 500 -100 0 -100 0 0 -608 0
-608 -150 -149 c-82 -83 -154 -151 -160 -153 -7 -3 -10 260 -10 820 l0 823
158 158 c87 86 156 157 153 157 -3 0 0 4 8 9 21 14 160 151 152 151 -3 0 0 4
8 9 21 14 160 151 152 151 -3 0 0 4 8 9 27 17 201 193 201 203 0 5 -29 39 -66
75 l-65 66 -346 -347 c-190 -190 -350 -346 -354 -346 -5 0 -10 179 -11 398
l-3 397 -97 3 -98 3 0 -401 c0 -282 -3 -401 -11 -398 -6 2 -165 158 -354 347
l-344 344 -43 -39 c-24 -21 -55 -53 -70 -70 l-28 -31 425 -424 425 -424 0
-812 c0 -495 -4 -814 -9 -818 -6 -3 -14 1 -18 9 -8 15 -126 145 -240 265 l-62
66 -1 573 0 572 -100 0 -100 0 0 -455 c0 -250 -2 -455 -6 -455 -7 0 -167 169
-178 189 -5 9 -18 22 -29 30 -11 8 -27 23 -36 33 -9 11 -28 33 -43 49 l-28 29
0 555 0 555 -100 0 -100 0 -2 -450 -3 -451 -45 41 c-160 145 -262 230 -278
230 -6 0 -12 3 -14 8 -21 48 -601 362 -669 362 -6 0 185 -197 426 -437 l437
-438 -496 -3 -496 -2 0 -100 0 -100 603 0 602 0 159 -160 c88 -88 157 -163
154 -166 -4 -3 -232 -5 -507 -4 l-501 1 0 -101 0 -100 611 0 612 0 70 -68 c38
-37 86 -85 106 -106 20 -21 55 -57 79 -79 23 -22 42 -46 42 -54 0 -11 -143
-13 -823 -13 l-822 0 -424 425 -424 426 -30 -28 c-16 -15 -48 -47 -71 -70
l-42 -42 348 -348 c191 -191 348 -351 348 -355 0 -5 -180 -8 -400 -8 l-401 0
3 -97 3 -98 398 -3 c218 -1 397 -6 397 -10 0 -4 -156 -163 -347 -354 l-347
-347 68 -66 c37 -36 71 -65 77 -63 5 2 197 191 427 420 l417 418 810 0 c446 0
816 0 823 0 30 0 3 -35 -141 -178 l-153 -153 -572 1 c-315 0 -584 -3 -597 -6
-25 -6 -26 -7 -23 -98 l3 -91 488 -3 c268 -1 487 -6 487 -10 0 -4 -72 -79
-159 -166 -139 -137 -163 -158 -184 -152 -32 8 -1145 8 -1158 0 -6 -3 -9 -42
-8 -94 3 -85 4 -89 28 -95 14 -4 233 -5 488 -4 255 1 466 -1 470 -5 8 -7 -286
-306 -301 -306 -16 0 -96 43 -96 52 0 4 -8 8 -18 8 -10 0 -22 4 -28 9 -31 31
-323 66 -339 41 -4 -6 -10 -8 -14 -6 -11 7 -122 -29 -183 -60 -62 -31 -106
-65 -168 -127 -49 -49 -54 -56 -105 -151 -31 -57 -40 -85 -60 -178 -3 -16 -11
-28 -18 -28 -13 1 -61 63 -93 120 -10 19 -21 37 -24 40 -23 22 -117 186 -175
305 -17 33 -32 62 -35 65 -3 3 -6 12 -8 20 -2 8 -15 39 -28 68 -26 56 -108
297 -143 417 -88 303 -125 652 -110 1015 6 144 42 461 55 481 2 4 11 38 18 76
56 266 136 491 271 758 68 134 212 377 234 395 3 3 22 28 40 55 19 28 38 52
41 55 3 3 13 14 21 26 115 167 479 520 659 639 25 17 47 32 50 35 11 13 180
120 255 162 90 51 312 159 377 184 24 9 117 41 208 71 91 31 172 58 180 61 8
2 22 6 30 7 51 10 167 35 180 39 8 3 78 15 155 27 173 26 597 37 780 20 179
-17 432 -61 541 -95 27 -8 86 -26 131 -40 196 -60 426 -158 613 -261 74 -41
143 -86 148 -97 2 -5 8 -8 14 -8 23 0 286 -189 368 -266 25 -23 63 -57 84 -75
49 -42 217 -215 281 -289 27 -30 52 -58 57 -61 6 -3 8 -8 6 -10 -1 -3 14 -25
35 -50 20 -25 37 -51 37 -58 0 -6 7 -11 15 -11 8 0 15 -5 15 -10 0 -11 31 -59
61 -95 10 -11 29 -42 45 -70 47 -86 92 -147 96 -133 3 7 5 -2 5 -20 0 -19 4
-37 9 -40 5 -4 20 -29 33 -56 18 -36 26 -45 33 -35 6 10 7 7 3 -8 -7 -25 39
-133 48 -111 3 7 6 3 6 -10 1 -15 5 -21 13 -16 8 5 9 0 5 -16 -4 -15 5 -49 25
-94 16 -39 35 -86 40 -105 7 -26 12 -31 19 -20 5 9 7 3 4 -19 -3 -27 -1 -33
12 -28 12 5 14 1 9 -20 -7 -27 10 -94 24 -94 4 0 11 8 14 17 10 24 22 5 30
-45 4 -29 3 -41 -4 -37 -5 3 -10 -2 -10 -11 0 -10 3 -14 7 -11 3 4 12 2 19 -4
8 -6 25 -8 39 -5 21 5 25 12 25 41 0 23 4 34 13 32 16 -3 16 76 -1 127 -7 21
-10 47 -6 58 3 11 2 30 -4 42 -5 11 -14 33 -21 49 -6 15 -15 27 -21 27 -13 0
-13 -17 0 -25 16 -10 12 -45 -5 -45 -13 0 -15 9 -12 43 3 23 0 49 -7 57 -10
13 -9 13 8 0 18 -14 19 -13 13 5 -18 61 -34 91 -45 87 -8 -2 -12 9 -12 35 0
21 -5 45 -11 53 -9 12 -10 11 -6 -5 3 -15 -1 -21 -15 -21 -18 0 -36 32 -24 43
3 4 6 -1 6 -10 0 -10 5 -17 10 -17 14 0 12 22 -5 44 -8 11 -13 27 -10 36 6 20
-107 246 -135 270 -4 3 -12 19 -19 37 -7 17 -19 34 -27 37 -8 3 -14 14 -14 24
0 11 -11 31 -25 46 -13 14 -25 29 -25 31 0 3 0 10 0 16 0 5 -4 7 -10 4 -5 -3
-10 -1 -10 6 0 17 -131 189 -255 334 -72 84 -367 375 -381 375 -2 0 -37 26
-77 58 -39 32 -94 74 -122 93 -27 19 -52 36 -55 39 -10 11 -200 130 -257 161
-197 108 -459 225 -583 260 -25 7 -50 16 -55 20 -6 4 -29 12 -50 18 -22 5 -74
19 -115 30 -41 12 -118 30 -170 42 -240 51 -245 52 -685 55 -231 1 -427 1
-435 -1z m3018 -1460 c-3 -3 -9 2 -12 12 -6 14 -5 15 5 6 7 -7 10 -15 7 -18z
m152 -175 c0 -5 -4 -10 -10 -10 -5 0 -10 5 -10 10 0 6 5 10 10 10 6 0 10 -4
10 -10z m271 -200 c5 0 9 -9 9 -19 0 -11 5 -23 10 -26 12 -7 13 -25 2 -25 -10
0 -42 76 -41 98 1 11 3 9 6 -5 2 -13 9 -23 14 -23z m-110 -103 c-10 -9 -11 -8
-5 6 3 10 9 15 12 12 3 -3 0 -11 -7 -18z m69 -112 c5 3 10 -1 10 -9 0 -28 -28
-17 -44 17 l-16 32 20 -23 c11 -13 24 -21 30 -17z m97 -212 c-3 -10 -5 -4 -5
12 0 17 2 24 5 18 2 -7 2 -21 0 -30z m-15 -37 c-7 -12 -20 21 -21 49 0 15 3
12 13 -10 7 -16 11 -34 8 -39z m105 22 c-3 -8 -6 -5 -6 6 -1 11 2 17 5 13 3
-3 4 -12 1 -19z m-17 -159 c0 -6 -4 -7 -10 -4 -5 3 -10 11 -10 16 0 6 5 7 10
4 6 -3 10 -11 10 -16z m-33 -31 c-3 -7 -5 -2 -5 12 0 14 2 19 5 13 2 -7 2 -19
0 -25z m129 -9 c0 -21 -4 -33 -7 -27 -5 8 -13 6 -24 -5 -25 -25 -35 -21 -35
16 0 24 6 35 23 42 37 18 44 14 43 -26z m-1016 5 c0 -2 -7 -4 -15 -4 -8 0 -15
4 -15 10 0 5 7 7 15 4 8 -4 15 -8 15 -10z m580 -126 c0 -6 -7 -7 -16 -4 -9 3
-18 6 -20 6 -3 0 -3 4 1 10 7 11 35 2 35 -12z m35 -18 c3 -5 2 -10 -4 -10 -5
0 -13 5 -16 10 -3 6 -2 10 4 10 5 0 13 -4 16 -10z m-255 -75 c-7 -9 -15 -13
-17 -11 -6 6 20 36 26 30 2 -2 -2 -10 -9 -19z m-160 -160 c-7 -9 -15 -13 -17
-11 -6 6 20 36 26 30 2 -2 -2 -10 -9 -19z m133 18 c-7 -2 -21 -2 -30 0 -10 3
-4 5 12 5 17 0 24 -2 18 -5z m-43 -33 c0 -5 -15 -9 -32 -9 l-33 1 30 8 c17 4
31 8 33 9 1 0 2 -3 2 -9z m-240 -129 c0 -5 -7 -14 -15 -21 -10 -9 -15 -9 -15
-1 0 6 5 11 11 11 5 0 7 5 4 10 -3 6 -1 10 4 10 6 0 11 -4 11 -9z m20 -65 c0
-3 -4 -8 -10 -11 -5 -3 -10 -1 -10 4 0 6 5 11 10 11 6 0 10 -2 10 -4z m-27
-53 c-7 -2 -19 -2 -25 0 -7 3 -2 5 12 5 14 0 19 -2 13 -5z m-110 -111 c9 -13
-31 -52 -54 -52 l-23 0 22 20 c12 12 22 25 22 30 0 12 27 13 33 2z m-253 -222
c0 -5 -4 -10 -10 -10 -5 0 -10 5 -10 10 0 6 5 10 10 10 6 0 10 -4 10 -10z
m347 4 c-3 -3 -12 -4 -19 -1 -8 3 -5 6 6 6 11 1 17 -2 13 -5z m-307 -24 c0 -5
-4 -10 -10 -10 -5 0 -10 5 -10 10 0 6 5 10 10 10 6 0 10 -4 10 -10z m190 -1
c0 -6 7 -17 15 -26 12 -12 13 -18 4 -29 -15 -18 -28 -9 -22 16 3 11 0 20 -6
20 -6 0 -11 7 -11 15 0 8 5 15 10 15 6 0 10 -5 10 -11z m-227 -16 c-7 -2 -19
-2 -25 0 -7 3 -2 5 12 5 14 0 19 -2 13 -5z m44 -25 c-3 -8 -6 -5 -6 6 -1 11 2
17 5 13 3 -3 4 -12 1 -19z m257 7 c3 -9 0 -15 -9 -15 -9 0 -12 6 -9 15 4 8 7
15 9 15 2 0 5 -7 9 -15z m-691 -2 c-24 -2 -62 -2 -85 0 -24 2 -5 4 42 4 47 0
66 -2 43 -4z m240 0 c-24 -2 -62 -2 -85 0 -24 2 -5 4 42 4 47 0 66 -2 43 -4z
m277 -43 c0 -5 -4 -10 -10 -10 -5 0 -10 5 -10 10 0 6 5 10 10 10 6 0 10 -4 10
-10z m-47 -17 c-7 -2 -19 -2 -25 0 -7 3 -2 5 12 5 14 0 19 -2 13 -5z m111 -18
c-4 -8 -7 -15 -9 -15 -2 0 -5 7 -9 15 -3 9 0 15 9 15 9 0 12 -6 9 -15z m-981
-292 c-24 -2 -62 -2 -85 0 -24 2 -5 4 42 4 47 0 66 -2 43 -4z m-450 -10 c-13
-2 -35 -2 -50 0 -16 2 -5 4 22 4 28 0 40 -2 28 -4z m790 -20 c-13 -2 -33 -2
-45 0 -13 2 -3 4 22 4 25 0 35 -2 23 -4z m160 0 c-13 -2 -33 -2 -45 0 -13 2
-3 4 22 4 25 0 35 -2 23 -4z m-240 -90 c-13 -2 -33 -2 -45 0 -13 2 -3 4 22 4
25 0 35 -2 23 -4z m180 -20 c-46 -2 -120 -2 -165 0 -46 1 -9 3 82 3 91 0 128
-2 83 -3z m-1126 -25 c-3 -8 -6 -5 -6 6 -1 11 2 17 5 13 3 -3 4 -12 1 -19z
m443 -240 c0 -4 -9 -3 -20 4 -11 7 -20 19 -20 27 0 11 5 10 20 -4 11 -10 20
-22 20 -27z m60 -2 c0 -3 -4 -8 -10 -11 -5 -3 -10 -1 -10 4 0 6 5 11 10 11 6
0 10 -2 10 -4z m-183 -38 c-3 -8 -6 -5 -6 6 -1 11 2 17 5 13 3 -3 4 -12 1 -19z
m63 5 c18 -17 17 -18 -13 -20 -26 -1 -28 0 -12 7 18 8 18 9 2 9 -10 1 -15 6
-12 11 8 14 13 13 35 -7z m150 -43 c6 -11 7 -20 2 -20 -10 0 -32 21 -32 32 0
16 19 8 30 -12z m-133 4 c-3 -3 -12 -4 -19 -1 -8 3 -5 6 6 6 11 1 17 -2 13 -5z
m3 -41 c0 -10 -4 -14 -8 -8 -4 6 -11 13 -16 18 -5 4 -2 7 7 7 10 0 17 -8 17
-17z m50 7 c0 -5 -4 -10 -10 -10 -5 0 -10 5 -10 10 0 6 5 10 10 10 6 0 10 -4
10 -10z m-3 -26 c-3 -3 -12 -4 -19 -1 -8 3 -5 6 6 6 11 1 17 -2 13 -5z m-450
-361 c-1 -60 -3 -11 -3 107 0 118 2 167 3 108 2 -60 2 -156 0 -215z m-1050
-300 c-1 -54 -3 -12 -3 92 0 105 2 149 3 98 2 -51 2 -136 0 -190z m-1217 107
c163 -70 260 -187 295 -358 9 -41 13 -93 10 -115 -12 -94 -18 -121 -31 -152
-7 -17 -11 -43 -8 -56 4 -21 3 -21 -4 -4 -8 18 -11 16 -25 -18 -16 -36 -117
-147 -134 -147 -5 0 -18 -8 -29 -19 -11 -10 -53 -28 -93 -41 -63 -19 -89 -22
-180 -18 -113 5 -164 20 -239 69 -25 17 -49 26 -59 22 -11 -4 -14 -3 -9 5 4 7
-9 31 -33 58 -46 52 -95 148 -110 214 -57 250 95 506 341 575 80 22 238 15
308 -15z m1877 -112 c-2 -24 -4 -5 -4 42 0 47 2 66 4 43 2 -24 2 -62 0 -85z
m10 -130 c-3 -7 -5 -2 -5 12 0 14 2 19 5 13 2 -7 2 -19 0 -25z m-1560 -190
c-3 -8 -6 -5 -6 6 -1 11 2 17 5 13 3 -3 4 -12 1 -19z m110 -30 c-3 -7 -5 -2
-5 12 0 14 2 19 5 13 2 -7 2 -19 0 -25z m1561 -40 c-3 -7 -11 -13 -18 -13 -7
0 -15 6 -17 13 -3 7 4 12 17 12 13 0 20 -5 18 -12z m-93 -68 c3 -5 -3 -10 -14
-10 -12 0 -21 5 -21 10 0 6 6 10 14 10 8 0 18 -4 21 -10z m-242 -20 c-19 -8
-21 -13 -13 -34 7 -20 6 -24 -6 -19 -9 3 -13 16 -12 34 2 24 7 29 28 28 25 0
25 0 3 -9z m-63 -50 c0 -5 -4 -10 -10 -10 -5 0 -10 5 -10 10 0 6 5 10 10 10 6
0 10 -4 10 -10z m-750 -85 c0 -5 -5 -3 -10 5 -5 8 -10 20 -10 25 0 6 5 3 10
-5 5 -8 10 -19 10 -25z m647 -1 c-3 -3 -12 -4 -19 -1 -8 3 -5 6 6 6 11 1 17
-2 13 -5z m33 -34 c0 -5 -4 -10 -9 -10 -6 0 -13 5 -16 10 -3 6 1 10 9 10 9 0
16 -4 16 -10z m-116 -41 c-8 -13 -21 -11 -27 5 -4 10 0 12 14 9 10 -3 16 -9
13 -14z m-1226 -31 c7 -7 12 -19 12 -27 -1 -12 -4 -11 -12 4 -6 11 -16 23 -22
27 -7 5 -8 8 0 8 5 0 15 -5 22 -12z m72 -38 c0 -5 -4 -10 -10 -10 -5 0 -10 5
-10 10 0 6 5 10 10 10 6 0 10 -4 10 -10z m1098 -47 c-10 -2 -26 -2 -35 0 -10
3 -2 5 17 5 19 0 27 -2 18 -5z m-107 -41 c-7 -2 -18 1 -23 6 -8 8 -4 9 13 5
13 -4 18 -8 10 -11z m-53 -119 c-10 -2 -26 -2 -35 0 -10 3 -2 5 17 5 19 0 27
-2 18 -5z m-107 -41 c-7 -2 -18 1 -23 6 -8 8 -4 9 13 5 13 -4 18 -8 10 -11z
m-1181 -32 c0 -5 -4 -10 -10 -10 -5 0 -10 5 -10 10 0 6 5 10 10 10 6 0 10 -4
10 -10z m1128 -87 c-10 -2 -26 -2 -35 0 -10 3 -2 5 17 5 19 0 27 -2 18 -5z
m-903 -73 c-3 -5 -10 -10 -16 -10 -5 0 -9 5 -9 10 0 6 7 10 16 10 8 0 12 -4 9
-10z m175 -100 c-8 -5 -22 -10 -30 -10 -13 0 -13 1 0 10 8 5 22 10 30 10 13 0
13 -1 0 -10z m140 -44 c0 -3 -4 -8 -10 -11 -5 -3 -10 -1 -10 4 0 6 5 11 10 11
6 0 10 -2 10 -4z m-170 -76 c-12 -8 -12 -10 -1 -10 8 0 12 -3 8 -6 -9 -9 -28
6 -22 17 4 5 12 9 18 9 7 0 6 -4 -3 -10z m120 -40 c0 -5 -4 -10 -9 -10 -5 0
-16 -3 -25 -6 -9 -3 -16 -1 -16 4 0 9 16 17 43 21 4 0 7 -3 7 -9z m113 -31
c-30 -20 -15 -26 18 -8 11 5 28 9 37 6 10 -2 -1 -9 -26 -16 -30 -8 -52 -9 -70
-2 -18 6 -21 10 -9 10 9 1 17 5 17 11 0 5 7 7 15 4 9 -4 15 0 15 10 0 10 6 13
16 9 12 -4 10 -9 -13 -24z m140 24 c-7 -2 -21 -2 -30 0 -10 3 -4 5 12 5 17 0
24 -2 18 -5z m53 -22 c-3 -5 -17 -8 -31 -8 -14 0 -25 3 -25 8 0 5 14 9 31 9
16 0 28 -4 25 -9z m-156 -51 c-8 -5 -22 -10 -30 -10 -13 0 -13 1 0 10 8 5 22
10 30 10 13 0 13 -1 0 -10z"/>
<path d="M6570 4951 c0 -6 4 -13 10 -16 6 -3 7 1 4 9 -7 18 -14 21 -14 7z"/>
<path d="M6759 4450 c-3 -8 0 -28 7 -45 9 -22 13 -24 13 -10 -1 36 -14 72 -20
55z"/>
<path d="M6622 4380 c0 -19 2 -27 5 -17 2 9 2 25 0 35 -3 9 -5 1 -5 -18z"/>
<path d="M6804 4257 c0 -34 2 -54 4 -44 2 9 8 14 14 11 6 -4 8 1 3 15 -3 11
-9 33 -11 48 -8 44 -10 37 -10 -30z"/>
<path d="M6631 4234 c0 -11 3 -14 6 -6 3 7 2 16 -1 19 -3 4 -6 -2 -5 -13z"/>
<path d="M6646 4211 c-3 -5 1 -11 9 -14 9 -4 12 -1 8 9 -6 16 -10 17 -17 5z"/>
<path d="M6704 4142 c0 -26 -3 -63 -7 -82 -6 -26 -4 -24 8 10 16 48 20 106 7
113 -4 3 -7 -16 -8 -41z"/>
<path d="M6681 4154 c0 -11 3 -14 6 -6 3 7 2 16 -1 19 -3 4 -6 -2 -5 -13z"/>
<path d="M6165 4129 c-11 -17 1 -21 15 -4 8 9 8 15 2 15 -6 0 -14 -5 -17 -11z"/>
<path d="M6801 4114 c0 -11 3 -14 6 -6 3 7 2 16 -1 19 -3 4 -6 -2 -5 -13z"/>
<path d="M6113 4095 c-18 -20 3 -30 22 -11 8 8 15 17 15 20 0 11 -25 5 -37 -9z"/>
<path d="M6672 4080 c0 -14 2 -19 5 -12 2 6 2 18 0 25 -3 6 -5 1 -5 -13z"/>
<path d="M6806 4075 c-3 -9 -6 -24 -5 -33 0 -9 5 -4 10 12 9 32 6 48 -5 21z"/>
<path d="M6847 4063 c-11 -10 -8 -43 3 -43 6 0 10 11 10 25 0 26 -2 29 -13 18z"/>
<path d="M6035 4020 c3 -5 1 -10 -6 -10 -10 0 -10 -3 -2 -11 9 -9 16 -8 27 4
21 21 20 27 -5 27 -11 0 -17 -4 -14 -10z"/>
<path d="M6701 4004 c0 -11 3 -14 6 -6 3 7 2 16 -1 19 -3 4 -6 -2 -5 -13z"/>
<path d="M6005 3969 c-11 -17 1 -21 15 -4 8 9 8 15 2 15 -6 0 -14 -5 -17 -11z"/>
<path d="M6691 3964 c0 -11 3 -14 6 -6 3 7 2 16 -1 19 -3 4 -6 -2 -5 -13z"/>
<path d="M5953 3935 c-18 -20 3 -30 22 -11 8 8 15 17 15 20 0 11 -25 5 -37 -9z"/>
<path d="M6701 3894 c0 -11 3 -14 6 -6 3 7 2 16 -1 19 -3 4 -6 -2 -5 -13z"/>
<path d="M5925 3889 c-11 -17 1 -21 15 -4 8 9 8 15 2 15 -6 0 -14 -5 -17 -11z"/>
<path d="M5873 3855 c-18 -20 3 -30 22 -11 8 8 15 17 15 20 0 11 -25 5 -37 -9z"/>
<path d="M6702 3820 c0 -14 2 -19 5 -12 2 6 2 18 0 25 -3 6 -5 1 -5 -13z"/>
<path d="M6881 3754 c0 -11 3 -14 6 -6 3 7 2 16 -1 19 -3 4 -6 -2 -5 -13z"/>
<path d="M6712 3720 c0 -14 2 -19 5 -12 2 6 2 18 0 25 -3 6 -5 1 -5 -13z"/>
<path d="M5711 3696 c-17 -20 5 -31 24 -12 8 8 15 17 15 20 0 12 -28 6 -39 -8z"/>
<path d="M6408 3393 c7 -3 16 -2 19 1 4 3 -2 6 -13 5 -11 0 -14 -3 -6 -6z"/>
<path d="M5385 3370 c10 -11 22 -17 27 -14 5 3 1 12 -9 20 -27 20 -39 17 -18
-6z"/>
<path d="M5686 3305 c4 -8 14 -15 23 -15 14 0 14 -2 1 -10 -8 -5 -11 -12 -7
-16 10 -11 31 12 23 25 -4 6 -16 16 -26 21 -16 8 -18 8 -14 -5z"/>
<path d="M5641 3301 c-18 -12 -5 -31 20 -31 14 0 19 6 17 17 -4 20 -18 26 -37
14z"/>
<path d="M5591 3230 c-1 -8 -4 -24 -7 -35 -4 -16 0 -21 18 -22 44 -4 67 -13
71 -31 3 -11 5 -7 6 10 1 23 -4 27 -38 33 -33 5 -41 11 -44 33 -2 15 -5 20 -6
12z"/>
<path d="M5540 3215 c7 -8 16 -15 21 -15 5 0 6 7 3 15 -4 8 -13 15 -21 15 -13
0 -13 -3 -3 -15z"/>
<path d="M5791 3193 c-18 -19 -10 -25 12 -8 10 7 15 15 10 18 -4 3 -14 -2 -22
-10z"/>
<path d="M5625 3140 c-3 -5 -1 -10 4 -10 6 0 11 5 11 10 0 6 -2 10 -4 10 -3 0
-8 -4 -11 -10z"/>
<path d="M5693 3123 c-13 -2 -23 -8 -23 -13 0 -5 7 -7 16 -3 13 5 15 2 10 -15
-10 -31 26 -65 56 -52 23 9 20 11 -17 14 -26 1 -32 62 -7 69 23 6 -5 6 -35 0z"/>
<path d="M5870 3115 c-7 -9 -8 -15 -2 -15 5 0 12 7 16 15 3 8 4 15 2 15 -2 0
-9 -7 -16 -15z"/>
<path d="M5745 3101 c-3 -5 -1 -12 5 -16 5 -3 10 1 10 9 0 18 -6 21 -15 7z"/>
<path d="M5940 3061 c0 -5 7 -12 16 -15 14 -5 15 -4 4 9 -14 17 -20 19 -20 6z"/>
<path d="M5068 3053 c18 -2 45 -2 60 0 15 2 0 4 -33 4 -33 0 -45 -2 -27 -4z"/>
<path d="M5200 3050 c0 -5 5 -10 11 -10 5 0 7 5 4 10 -3 6 -8 10 -11 10 -2 0
-4 -4 -4 -10z"/>
<path d="M5220 2985 c0 -27 3 -45 7 -41 7 7 5 77 -2 85 -3 2 -5 -17 -5 -44z"/>
<path d="M5827 3000 c4 -23 2 -30 -11 -30 -9 0 -16 5 -16 10 0 6 -5 10 -12 10
-8 0 -6 -6 4 -16 24 -24 48 -11 48 26 0 16 -4 30 -10 30 -5 0 -7 -13 -3 -30z"/>
<path d="M5746 3005 c4 -8 8 -15 10 -15 2 0 4 7 4 15 0 8 -4 15 -10 15 -5 0
-7 -7 -4 -15z"/>
<path d="M5780 3010 c0 -5 5 -10 10 -10 6 0 10 5 10 10 0 6 -4 10 -10 10 -5 0
-10 -4 -10 -10z"/>
<path d="M6011 2976 c-10 -12 -8 -13 11 -8 21 5 22 4 8 -14 -14 -18 -14 -18 3
-5 13 10 15 17 6 27 -14 17 -14 17 -28 0z"/>
<path d="M5905 2941 c-3 -5 -1 -12 5 -16 5 -3 10 1 10 9 0 18 -6 21 -15 7z"/>
<path d="M6087 2903 c-12 -12 -7 -22 8 -17 8 4 15 10 15 15 0 11 -14 12 -23 2z"/>
<path d="M5210 2896 c0 -2 7 -6 15 -10 8 -3 15 -1 15 4 0 6 -7 10 -15 10 -8 0
-15 -2 -15 -4z"/>
<path d="M5905 2850 c3 -5 8 -10 11 -10 2 0 4 5 4 10 0 6 -5 10 -11 10 -5 0
-7 -4 -4 -10z"/>
<path d="M5970 2854 c0 -3 7 -12 15 -20 16 -17 18 -14 9 10 -6 15 -24 23 -24
10z"/>
<path d="M5945 2820 c3 -5 8 -10 11 -10 2 0 4 5 4 10 0 6 -5 10 -11 10 -5 0
-7 -4 -4 -10z"/>
<path d="M6190 2800 c-8 -5 -11 -12 -7 -16 4 -4 13 -2 19 4 15 15 7 24 -12 12z"/>
<path d="M6065 2781 c-3 -5 -1 -12 5 -16 5 -3 10 1 10 9 0 18 -6 21 -15 7z"/>
<path d="M6066 2687 c3 -10 9 -15 12 -12 3 3 0 11 -7 18 -10 9 -11 8 -5 -6z"/>
<path d="M6145 2690 c3 -5 8 -10 11 -10 2 0 4 5 4 10 0 6 -5 10 -11 10 -5 0
-7 -4 -4 -10z"/>
<path d="M6325 2669 c-4 -6 -5 -12 -2 -15 2 -3 7 2 10 11 7 17 1 20 -8 4z"/>
<path d="M4547 2525 c19 -13 91 -15 540 -12 l518 2 -522 3 c-334 1 -524 6
-528 12 -3 6 -11 10 -18 10 -6 0 -2 -7 10 -15z"/>
<path d="M5731 2474 c0 -11 3 -14 6 -6 3 7 2 16 -1 19 -3 4 -6 -2 -5 -13z"/>
<path d="M4813 2423 c15 -2 37 -2 50 0 12 2 0 4 -28 4 -27 0 -38 -2 -22 -4z"/>
<path d="M5720 2369 c0 -5 5 -7 10 -4 6 3 10 8 10 11 0 2 -4 4 -10 4 -5 0 -10
-5 -10 -11z"/>
<path d="M4783 2348 c-2 -5 202 -7 454 -6 252 1 386 4 298 5 -409 7 -747 7
-752 1z"/>
<path d="M5718 2343 c7 -3 16 -2 19 1 4 3 -2 6 -13 5 -11 0 -14 -3 -6 -6z"/>
<path d="M4673 2325 c0 -9 10 -15 24 -15 14 0 23 6 23 15 0 9 -9 15 -23 15
-14 0 -24 -6 -24 -15z"/>
<path d="M4732 2310 c-10 -27 2 -40 20 -22 7 7 7 16 0 29 -10 17 -11 16 -20
-7z"/>
<path d="M4780 2251 c0 -6 5 -13 10 -16 6 -3 10 1 10 9 0 9 -4 16 -10 16 -5 0
-10 -4 -10 -9z"/>
<path d="M4710 2225 c-7 -9 -10 -18 -7 -22 8 -7 37 15 37 28 0 14 -16 11 -30
-6z"/>
<path d="M4810 2216 c0 -2 7 -7 16 -10 8 -3 12 -2 9 4 -6 10 -25 14 -25 6z"/>
<path d="M4628 2199 c-20 -13 14 -21 42 -11 l24 9 -26 5 c-15 3 -32 1 -40 -3z"/>
<path d="M4540 2193 c0 -7 -7 -13 -16 -13 -23 0 -11 -24 14 -28 24 -4 28 13
12 38 -6 10 -10 11 -10 3z"/>
<path d="M4665 2170 c3 -5 8 -10 11 -10 2 0 4 5 4 10 0 6 -5 10 -11 10 -5 0
-7 -4 -4 -10z"/>
<path d="M4588 2163 c-2 -5 -1 -143 2 -308 l5 -300 3 308 c2 277 0 324 -10
300z"/>
<path d="M4690 2150 c-12 -8 -11 -10 8 -10 12 0 22 5 22 10 0 13 -11 13 -30 0z"/>
<path d="M4793 2143 c-15 -5 -17 -23 -4 -23 5 0 11 7 15 15 3 8 4 15 3 14 -1
0 -8 -3 -14 -6z"/>
<path d="M4564 2050 c0 -52 1 -74 3 -47 2 26 2 68 0 95 -2 26 -3 4 -3 -48z"/>
<path d="M4890 2136 c0 -2 7 -7 16 -10 8 -3 12 -2 9 4 -6 10 -25 14 -25 6z"/>
<path d="M5283 2103 c9 -2 23 -2 30 0 6 3 -1 5 -18 5 -16 0 -22 -2 -12 -5z"/>
<path d="M5605 2100 c3 -5 16 -10 28 -9 21 0 21 1 2 9 -28 12 -37 12 -30 0z"/>
<path d="M4765 2069 c-4 -6 -5 -12 -2 -15 2 -3 7 2 10 11 7 17 1 20 -8 4z"/>
<path d="M4872 2060 c-7 -11 -8 -20 -3 -20 9 0 24 30 18 36 -1 2 -8 -6 -15
-16z"/>
<path d="M4966 2052 c-2 -4 4 -8 14 -8 10 0 16 4 14 8 -3 4 -9 8 -14 8 -5 0
-11 -4 -14 -8z"/>
<path d="M5087 2013 c-4 -3 -7 -11 -7 -17 0 -6 5 -5 12 2 6 6 9 14 7 17 -3 3
-9 2 -12 -2z"/>
<path d="M4925 1900 c-13 -6 -15 -9 -5 -9 8 0 22 4 30 9 18 12 2 12 -25 0z"/>
<path d="M5134 1879 c-19 -22 -19 -22 3 -10 24 12 39 31 25 31 -5 0 -17 -10
-28 -21z"/>
<path d="M5080 1844 c0 -14 3 -14 15 -4 8 7 15 14 15 16 0 2 -7 4 -15 4 -8 0
-15 -7 -15 -16z"/>
<path d="M4920 1835 c-6 -8 -10 -20 -8 -26 2 -6 12 0 21 15 18 27 8 37 -13 11z"/>
<path d="M4940 1770 c0 -5 5 -10 10 -10 6 0 10 5 10 10 0 6 -4 10 -10 10 -5 0
-10 -4 -10 -10z"/>
<path d="M3963 1723 c20 -2 54 -2 75 0 20 2 3 4 -38 4 -41 0 -58 -2 -37 -4z"/>
<path d="M5005 1719 c-4 -6 -5 -12 -2 -15 2 -3 7 2 10 11 7 17 1 20 -8 4z"/>
<path d="M6051 1674 c0 -11 3 -14 6 -6 3 7 2 16 -1 19 -3 4 -6 -2 -5 -13z"/>
<path d="M4841 1634 c0 -11 3 -14 6 -6 3 7 2 16 -1 19 -3 4 -6 -2 -5 -13z"/>
<path d="M3552 1548 c3 -7 13 -15 24 -17 16 -3 17 -1 5 13 -16 19 -34 21 -29
4z"/>
<path d="M3306 1512 c-3 -6 -1 -14 5 -17 15 -10 25 3 12 16 -7 7 -13 7 -17 1z"/>
<path d="M3685 1419 c-4 -6 -5 -12 -2 -15 2 -3 7 2 10 11 7 17 1 20 -8 4z"/>
<path d="M3710 1402 c0 -5 7 -15 15 -22 8 -7 15 -8 15 -2 0 5 -7 15 -15 22 -8
7 -15 8 -15 2z"/>
<path d="M3680 1369 c0 -8 9 -20 20 -27 11 -7 20 -8 20 -4 0 5 -9 17 -20 27
-15 14 -20 15 -20 4z"/>
<path d="M4461 1364 c0 -11 3 -14 6 -6 3 7 2 16 -1 19 -3 4 -6 -2 -5 -13z"/>
<path d="M3767 1336 c-4 -10 -1 -13 9 -9 15 6 19 23 5 23 -5 0 -11 -7 -14 -14z"/>
<path d="M3800 1305 c7 -9 15 -13 17 -11 7 7 -7 26 -19 26 -6 0 -6 -6 2 -15z"/>
<path d="M3624 1285 c-23 -22 -24 -25 -8 -25 27 0 48 16 40 29 -5 7 -1 9 8 5
9 -3 16 -1 16 5 0 19 -28 12 -56 -14z"/>
<path d="M3761 1284 c0 -11 3 -14 6 -6 3 7 2 16 -1 19 -3 4 -6 -2 -5 -13z"/>
<path d="M3805 1269 c-10 -15 3 -25 16 -12 7 7 7 13 1 17 -6 3 -14 1 -17 -5z"/>
<path d="M5005 1270 c3 -5 8 -10 11 -10 2 0 4 5 4 10 0 6 -5 10 -11 10 -5 0
-7 -4 -4 -10z"/>
<path d="M3861 1256 c13 -18 12 -19 -3 -13 -12 4 -18 2 -18 -7 0 -8 8 -13 17
-12 9 0 22 -9 29 -22 9 -19 13 -20 17 -8 4 10 -6 28 -25 48 -18 18 -25 24 -17
14z"/>
<path d="M3643 1235 c0 -16 43 -33 54 -21 4 3 -3 6 -15 6 -12 0 -21 5 -19 11
1 6 -3 13 -9 16 -6 2 -11 -3 -11 -12z"/>
<path d="M3840 1186 c0 -9 5 -16 10 -16 6 0 10 4 10 9 0 6 -4 13 -10 16 -5 3
-10 -1 -10 -9z"/>
<path d="M3730 1140 c8 -5 22 -9 30 -9 10 0 8 3 -5 9 -27 12 -43 12 -25 0z"/>
<path d="M3922 1120 c0 -14 2 -19 5 -12 2 6 2 18 0 25 -3 6 -5 1 -5 -13z"/>
<path d="M3785 1120 c3 -5 8 -10 11 -10 2 0 4 5 4 10 0 6 -5 10 -11 10 -5 0
-7 -4 -4 -10z"/>
<path d="M2900 1106 c0 -9 7 -16 16 -16 17 0 14 22 -4 28 -7 2 -12 -3 -12 -12z"/>
<path d="M4000 1110 c0 -5 5 -10 11 -10 5 0 7 5 4 10 -3 6 -8 10 -11 10 -2 0
-4 -4 -4 -10z"/>
<path d="M3812 1071 c-11 -6 -10 -10 4 -15 9 -3 19 -4 22 -1 3 3 -1 5 -9 5
-11 0 -11 2 1 10 8 5 11 10 5 10 -5 0 -16 -4 -23 -9z"/>
<path d="M4040 1070 c0 -5 5 -10 11 -10 5 0 7 5 4 10 -3 6 -8 10 -11 10 -2 0
-4 -4 -4 -10z"/>
<path d="M4005 1040 c3 -5 8 -10 11 -10 2 0 4 5 4 10 0 6 -5 10 -11 10 -5 0
-7 -4 -4 -10z"/>
<path d="M3880 986 c0 -2 7 -7 16 -10 8 -3 12 -2 9 4 -6 10 -25 14 -25 6z"/>
<path d="M2740 946 c0 -9 7 -16 16 -16 17 0 14 22 -4 28 -7 2 -12 -3 -12 -12z"/>
<path d="M4080 950 c0 -5 5 -10 11 -10 5 0 7 5 4 10 -3 6 -8 10 -11 10 -2 0
-4 -4 -4 -10z"/>
<path d="M4190 916 c0 -2 8 -10 18 -17 15 -13 16 -12 3 4 -13 16 -21 21 -21
13z"/>
<path d="M3970 900 c8 -5 20 -10 25 -10 6 0 3 5 -5 10 -8 5 -19 10 -25 10 -5
0 -3 -5 5 -10z"/>
<path d="M2692 667 c-22 -13 -30 -22 -22 -27 7 -4 23 3 37 17 31 32 27 35 -15
10z"/>
<path d="M1837 439 c7 -7 15 -10 18 -7 3 3 -2 9 -12 12 -14 6 -15 5 -6 -5z"/>
<path d="M2300 423 c0 -8 137 -54 155 -53 8 1 -142 60 -152 60 -2 0 -3 -3 -3
-7z"/>
<path d="M2505 350 c3 -5 13 -10 21 -10 8 0 12 5 9 10 -3 6 -13 10 -21 10 -8
0 -12 -4 -9 -10z"/>
<path d="M2558 333 c6 -2 18 -2 25 0 6 3 1 5 -13 5 -14 0 -19 -2 -12 -5z"/>
<path d="M2630 320 c8 -5 20 -10 25 -10 6 0 3 5 -5 10 -8 5 -19 10 -25 10 -5
0 -3 -5 5 -10z"/>
<path d="M2698 303 c7 -3 16 -2 19 1 4 3 -2 6 -13 5 -11 0 -14 -3 -6 -6z"/>
<path d="M2518 283 c6 -2 18 -2 25 0 6 3 1 5 -13 5 -14 0 -19 -2 -12 -5z"/>
<path d="M2800 270 c0 -5 6 -10 14 -10 8 0 18 5 21 10 3 6 -3 10 -14 10 -12 0
-21 -4 -21 -10z"/>
<path d="M2578 263 c7 -3 16 -2 19 1 4 3 -2 6 -13 5 -11 0 -14 -3 -6 -6z"/>
<path d="M2873 248 c21 -7 32 -7 40 1 8 8 0 11 -28 10 -40 -1 -40 -1 -12 -11z"/>
<path d="M3048 233 c7 -3 16 -2 19 1 4 3 -2 6 -13 5 -11 0 -14 -3 -6 -6z"/>
<path d="M2533 214 c-18 -18 -16 -24 7 -24 11 0 20 6 20 14 0 21 -13 26 -27
10z"/>
<path d="M2466 181 c-5 -7 8 -11 38 -11 26 0 46 -5 49 -12 3 -8 6 -6 6 5 1 9
-5 17 -13 17 -7 0 -27 3 -44 6 -17 4 -32 1 -36 -5z"/>
<path d="M2608 183 c6 -2 18 -2 25 0 6 3 1 5 -13 5 -14 0 -19 -2 -12 -5z"/>
<path d="M2705 120 c-3 -5 -1 -10 4 -10 6 0 11 5 11 10 0 6 -2 10 -4 10 -3 0
-8 -4 -11 -10z"/>
<path d="M2945 120 c3 -5 8 -10 11 -10 2 0 4 5 4 10 0 6 -5 10 -11 10 -5 0 -7
-4 -4 -10z"/>
<path d="M2808 93 c6 -2 18 -2 25 0 6 3 1 5 -13 5 -14 0 -19 -2 -12 -5z"/>
<path d="M2878 83 c12 -2 30 -2 40 0 9 3 -1 5 -23 4 -22 0 -30 -2 -17 -4z"/>
</g>
</svg>
